<?xml version="1.0" encoding="us-ascii" standalone="no"?><svg xmlns="http://www.w3.org/2000/svg" xmlns:xlink="http://www.w3.org/1999/xlink" contentStyleType="text/css" height="1271px" preserveAspectRatio="none" style="width:1579px;height:1271px;background:#FFFFFF;" version="1.1" viewBox="0 0 1579 1271" width="1579px" zoomAndPan="magnify"><defs/><g><!--class MarkerListener--><g id="elem_MarkerListener"><rect codeLine="1" fill="#F1F1F1" height="210.9688" id="MarkerListener" rx="2.5" ry="2.5" style="stroke:#181818;stroke-width:0.5;" width="283" x="7" y="448.5"/><ellipse cx="89.75" cy="464.5" fill="#ADD1B2" rx="11" ry="11" style="stroke:#181818;stroke-width:1.0;"/><path d="M92.0938,460.1719 C91.1563,459.7344 90.5625,459.5938 89.6875,459.5938 C87.0625,459.5938 85.0625,461.6719 85.0625,464.3906 L85.0625,465.5156 C85.0625,468.0938 87.1719,469.9844 90.0625,469.9844 C91.2813,469.9844 92.4375,469.6875 93.1875,469.1406 C93.7656,468.7344 94.0938,468.2813 94.0938,467.8906 C94.0938,467.4375 93.7031,467.0469 93.2344,467.0469 C93.0156,467.0469 92.8125,467.125 92.625,467.3125 C92.1719,467.7969 92.1719,467.7969 91.9844,467.8906 C91.5625,468.1563 90.875,468.2813 90.1094,468.2813 C88.0625,468.2813 86.7656,467.1875 86.7656,465.4844 L86.7656,464.3906 C86.7656,462.6094 88.0156,461.2969 89.75,461.2969 C90.3281,461.2969 90.9375,461.4531 91.4063,461.7031 C91.8906,461.9844 92.0625,462.2031 92.1563,462.6094 C92.2188,463.0156 92.25,463.1406 92.3906,463.2656 C92.5313,463.4063 92.7656,463.5156 92.9844,463.5156 C93.25,463.5156 93.5156,463.375 93.6875,463.1563 C93.7969,463 93.8281,462.8125 93.8281,462.3906 L93.8281,460.9688 C93.8281,460.5313 93.8125,460.4063 93.7188,460.25 C93.5625,459.9844 93.2813,459.8438 92.9844,459.8438 C92.6875,459.8438 92.4844,459.9375 92.2656,460.25 L92.0938,460.1719 Z " fill="#000000"/><text fill="#000000" font-family="sans-serif" font-size="14" lengthAdjust="spacing" textLength="109" x="110.25" y="469.3467">MarkerListener</text><line style="stroke:#181818;stroke-width:0.5;" x1="8" x2="289" y1="480.5" y2="480.5"/><line style="stroke:#181818;stroke-width:0.5;" x1="8" x2="289" y1="488.5" y2="488.5"/><ellipse cx="18" cy="502.1484" fill="#84BE84" rx="3" ry="3" style="stroke:#038048;stroke-width:1.0;"/><text fill="#000000" font-family="sans-serif" font-size="14" lengthAdjust="spacing" textLength="228" x="27" y="505.4951">void addTuioObject(TuioObject)</text><ellipse cx="18" cy="518.4453" fill="#84BE84" rx="3" ry="3" style="stroke:#038048;stroke-width:1.0;"/><text fill="#000000" font-family="sans-serif" font-size="14" lengthAdjust="spacing" textLength="253" x="27" y="521.792">void updateTuioObject(TuioObject)</text><ellipse cx="18" cy="534.7422" fill="#84BE84" rx="3" ry="3" style="stroke:#038048;stroke-width:1.0;"/><text fill="#000000" font-family="sans-serif" font-size="14" lengthAdjust="spacing" textLength="257" x="27" y="538.0889">void removeTuioObject(TuioObject)</text><ellipse cx="18" cy="551.0391" fill="#84BE84" rx="3" ry="3" style="stroke:#038048;stroke-width:1.0;"/><text fill="#000000" font-family="sans-serif" font-size="14" lengthAdjust="spacing" textLength="222" x="27" y="554.3857">void addTuioCursor(TuioCursor)</text><ellipse cx="18" cy="567.3359" fill="#84BE84" rx="3" ry="3" style="stroke:#038048;stroke-width:1.0;"/><text fill="#000000" font-family="sans-serif" font-size="14" lengthAdjust="spacing" textLength="247" x="27" y="570.6826">void updateTuioCursor(TuioCursor)</text><ellipse cx="18" cy="583.6328" fill="#84BE84" rx="3" ry="3" style="stroke:#038048;stroke-width:1.0;"/><text fill="#000000" font-family="sans-serif" font-size="14" lengthAdjust="spacing" textLength="251" x="27" y="586.9795">void removeTuioCursor(TuioCursor)</text><ellipse cx="18" cy="599.9297" fill="#84BE84" rx="3" ry="3" style="stroke:#038048;stroke-width:1.0;"/><text fill="#000000" font-family="sans-serif" font-size="14" lengthAdjust="spacing" textLength="196" x="27" y="603.2764">void addTuioBlob(TuioBlob)</text><ellipse cx="18" cy="616.2266" fill="#84BE84" rx="3" ry="3" style="stroke:#038048;stroke-width:1.0;"/><text fill="#000000" font-family="sans-serif" font-size="14" lengthAdjust="spacing" textLength="221" x="27" y="619.5732">void updateTuioBlob(TuioBlob)</text><ellipse cx="18" cy="632.5234" fill="#84BE84" rx="3" ry="3" style="stroke:#038048;stroke-width:1.0;"/><text fill="#000000" font-family="sans-serif" font-size="14" lengthAdjust="spacing" textLength="225" x="27" y="635.8701">void removeTuioBlob(TuioBlob)</text><ellipse cx="18" cy="648.8203" fill="#84BE84" rx="3" ry="3" style="stroke:#038048;stroke-width:1.0;"/><text fill="#000000" font-family="sans-serif" font-size="14" lengthAdjust="spacing" textLength="162" x="27" y="652.167">void refresh(TuioTime)</text></g><!--class ControlModule--><g id="elem_ControlModule"><rect codeLine="13" fill="#F1F1F1" height="292.4531" id="ControlModule" rx="2.5" ry="2.5" style="stroke:#181818;stroke-width:0.5;" width="289" x="210" y="972"/><ellipse cx="298.25" cy="988" fill="#A9DCDF" rx="11" ry="11" style="stroke:#181818;stroke-width:1.0;"/><path d="M300.3281,989.8125 L300.7188,990.7969 L300.3281,990.7969 C299.875,990.7969 299.7656,990.8125 299.6094,990.9219 C299.3594,991.0781 299.2031,991.3594 299.2031,991.6563 C299.2031,991.9219 299.3438,992.1719 299.5625,992.3281 C299.7031,992.4531 299.9063,992.5 300.3281,992.5 L302.6875,992.5 C303.0469,992.5 303.2656,992.4688 303.4063,992.375 C303.6563,992.2344 303.8125,991.9375 303.8125,991.6563 C303.8125,991.375 303.6719,991.125 303.4531,990.9688 C303.2813,990.8281 303.125,990.7969 302.6563,990.7969 L299.2656,982.5938 L295.5938,982.5938 C295.1406,982.5938 295.0156,982.6094 294.8594,982.7031 C294.6094,982.875 294.4531,983.1563 294.4531,983.4375 C294.4531,983.7188 294.5938,983.9688 294.8125,984.1406 C294.9844,984.25 295.1563,984.2813 295.5938,984.2813 L296.6719,984.2813 L294.0313,990.7969 C293.6094,990.7969 293.4531,990.8125 293.2969,990.9219 C293.0469,991.0781 292.8906,991.3594 292.8906,991.6563 C292.8906,992.2188 293.2656,992.5 294.0156,992.5 L296.2813,992.5 C296.6406,992.5 296.8594,992.4688 296.9844,992.375 C297.25,992.2344 297.3906,991.9375 297.3906,991.6563 C297.3906,991.375 297.2656,991.125 297.0469,990.9531 C296.875,990.8281 296.7344,990.7969 296.2813,990.7969 L295.8906,990.7969 L296.2813,989.8125 L300.3281,989.8125 Z M299.625,988.1094 L296.9531,988.1094 L298.2969,984.8438 L299.625,988.1094 Z " fill="#000000"/><text fill="#000000" font-family="sans-serif" font-size="14" font-style="italic" lengthAdjust="spacing" textLength="104" x="318.75" y="992.8467">ControlModule</text><line style="stroke:#181818;stroke-width:0.5;" x1="211" x2="498" y1="1004" y2="1004"/><polygon fill="none" points="221,1012.6484,225,1016.6484,221,1020.6484,217,1016.6484" style="stroke:#B38D22;stroke-width:1.0;"/><text fill="#000000" font-family="sans-serif" font-size="14" lengthAdjust="spacing" textLength="259" x="230" y="1020.9951">ReactButton lockConnectionButton</text><polygon fill="none" points="221,1028.9453,225,1032.9453,221,1036.9453,217,1032.9453" style="stroke:#B38D22;stroke-width:1.0;"/><text fill="#000000" font-family="sans-serif" font-size="14" lengthAdjust="spacing" textLength="106" x="230" y="1037.292">ReactIcon icon</text><polygon fill="none" points="221,1045.2422,225,1049.2422,221,1053.2422,217,1049.2422" style="stroke:#B38D22;stroke-width:1.0;"/><text fill="#000000" font-family="sans-serif" font-size="14" lengthAdjust="spacing" textLength="159" x="230" y="1053.5889">Text valueDisplayText</text><polygon fill="none" points="221,1061.5391,225,1065.5391,221,1069.5391,217,1065.5391" style="stroke:#B38D22;stroke-width:1.0;"/><text fill="#000000" font-family="sans-serif" font-size="14" lengthAdjust="spacing" textLength="195" x="230" y="1069.8857">ReactIcon valueDisplayIcon</text><polygon fill="none" points="221,1078.8359,217,1084.8359,225,1084.8359" style="stroke:#1963A0;stroke-width:1.0;"/><text fill="#000000" font-family="sans-serif" font-size="14" lengthAdjust="spacing" textLength="134" x="230" y="1086.1826">Rectangle fillRight</text><polygon fill="none" points="221,1095.1328,217,1101.1328,225,1101.1328" style="stroke:#1963A0;stroke-width:1.0;"/><text fill="#000000" font-family="sans-serif" font-size="14" lengthAdjust="spacing" textLength="256" x="230" y="1102.4795">Arc getVolumeIndicatorBackground</text><polygon fill="none" points="221,1111.4297,217,1117.4297,225,1117.4297" style="stroke:#1963A0;stroke-width:1.0;"/><text fill="#000000" font-family="sans-serif" font-size="14" lengthAdjust="spacing" textLength="144" x="230" y="1118.7764">Arc volumeIndicator</text><line style="stroke:#181818;stroke-width:0.5;" x1="211" x2="498" y1="1126.0781" y2="1126.0781"/><ellipse cx="221" cy="1139.7266" fill="#84BE84" rx="3" ry="3" style="stroke:#038048;stroke-width:1.0;"/><text fill="#000000" font-family="sans-serif" font-size="14" lengthAdjust="spacing" textLength="248" x="230" y="1143.0732">void setValueDisplayText(Number)</text><ellipse cx="221" cy="1156.0234" fill="#84BE84" rx="3" ry="3" style="stroke:#038048;stroke-width:1.0;"/><text fill="#000000" font-family="sans-serif" font-size="14" lengthAdjust="spacing" textLength="235" x="230" y="1159.3701">void setValueDisplayText(String)</text><ellipse cx="221" cy="1172.3203" fill="#84BE84" rx="3" ry="3" style="stroke:#038048;stroke-width:1.0;"/><text fill="#000000" font-family="sans-serif" font-size="14" lengthAdjust="spacing" textLength="263" x="230" y="1175.667">void setValueDisplayText(ReactIcon)</text><ellipse cx="221" cy="1188.6172" fill="#84BE84" rx="3" ry="3" style="stroke:#038048;stroke-width:1.0;"/><text fill="#000000" font-family="sans-serif" font-size="14" lengthAdjust="spacing" textLength="232" x="230" y="1191.9639">void setValueDisplayIcon(String)</text><ellipse cx="221" cy="1204.9141" fill="#84BE84" rx="3" ry="3" style="stroke:#038048;stroke-width:1.0;"/><text fill="#000000" font-family="sans-serif" font-size="14" lengthAdjust="spacing" textLength="154" x="230" y="1208.2607">void connect(Module)</text><ellipse cx="221" cy="1221.2109" fill="#84BE84" rx="3" ry="3" style="stroke:#038048;stroke-width:1.0;"/><text fill="#000000" font-family="sans-serif" font-size="14" lengthAdjust="spacing" textLength="141" x="230" y="1224.5576">void disconnectAll()</text><ellipse cx="221" cy="1237.5078" fill="#84BE84" rx="3" ry="3" style="stroke:#038048;stroke-width:1.0;"/><text fill="#000000" font-family="sans-serif" font-size="14" lengthAdjust="spacing" textLength="92" x="230" y="1240.8545">void lockAll()</text><ellipse cx="221" cy="1253.8047" fill="#84BE84" rx="3" ry="3" style="stroke:#038048;stroke-width:1.0;"/><text fill="#000000" font-family="sans-serif" font-size="14" lengthAdjust="spacing" textLength="174" x="230" y="1257.1514">void setPosition(double)</text></g><!--class Resource--><g id="elem_Resource"><rect codeLine="30" fill="#F1F1F1" height="129.4844" id="Resource" rx="2.5" ry="2.5" style="stroke:#181818;stroke-width:0.5;" width="250" x="955.5" y="7"/><ellipse cx="1043.25" cy="23" fill="#ADD1B2" rx="11" ry="11" style="stroke:#181818;stroke-width:1.0;"/><path d="M1045.5938,18.6719 C1044.6563,18.2344 1044.0625,18.0938 1043.1875,18.0938 C1040.5625,18.0938 1038.5625,20.1719 1038.5625,22.8906 L1038.5625,24.0156 C1038.5625,26.5938 1040.6719,28.4844 1043.5625,28.4844 C1044.7813,28.4844 1045.9375,28.1875 1046.6875,27.6406 C1047.2656,27.2344 1047.5938,26.7813 1047.5938,26.3906 C1047.5938,25.9375 1047.2031,25.5469 1046.7344,25.5469 C1046.5156,25.5469 1046.3125,25.625 1046.125,25.8125 C1045.6719,26.2969 1045.6719,26.2969 1045.4844,26.3906 C1045.0625,26.6563 1044.375,26.7813 1043.6094,26.7813 C1041.5625,26.7813 1040.2656,25.6875 1040.2656,23.9844 L1040.2656,22.8906 C1040.2656,21.1094 1041.5156,19.7969 1043.25,19.7969 C1043.8281,19.7969 1044.4375,19.9531 1044.9063,20.2031 C1045.3906,20.4844 1045.5625,20.7031 1045.6563,21.1094 C1045.7188,21.5156 1045.75,21.6406 1045.8906,21.7656 C1046.0313,21.9063 1046.2656,22.0156 1046.4844,22.0156 C1046.75,22.0156 1047.0156,21.875 1047.1875,21.6563 C1047.2969,21.5 1047.3281,21.3125 1047.3281,20.8906 L1047.3281,19.4688 C1047.3281,19.0313 1047.3125,18.9063 1047.2188,18.75 C1047.0625,18.4844 1046.7813,18.3438 1046.4844,18.3438 C1046.1875,18.3438 1045.9844,18.4375 1045.7656,18.75 L1045.5938,18.6719 Z " fill="#000000"/><text fill="#000000" font-family="sans-serif" font-size="14" lengthAdjust="spacing" textLength="66" x="1063.75" y="27.8467">Resource</text><line style="stroke:#181818;stroke-width:0.5;" x1="956.5" x2="1204.5" y1="39" y2="39"/><ellipse cx="966.5" cy="52.6484" fill="none" rx="3" ry="3" style="stroke:#038048;stroke-width:1.0;"/><text fill="#000000" font-family="sans-serif" font-size="14" lengthAdjust="spacing" text-decoration="underline" textLength="83" x="975.5" y="55.9951">String slash</text><ellipse cx="966.5" cy="68.9453" fill="none" rx="3" ry="3" style="stroke:#038048;stroke-width:1.0;"/><text fill="#000000" font-family="sans-serif" font-size="14" lengthAdjust="spacing" text-decoration="underline" textLength="117" x="975.5" y="72.292">String resources</text><rect fill="none" height="6" style="stroke:#C82930;stroke-width:1.0;" width="6" x="963.5" y="82.2422"/><text fill="#000000" font-family="sans-serif" font-size="14" lengthAdjust="spacing" textLength="123" x="975.5" y="88.5889">String config_file</text><rect fill="none" height="6" style="stroke:#C82930;stroke-width:1.0;" width="6" x="963.5" y="98.5391"/><text fill="#000000" font-family="sans-serif" font-size="14" lengthAdjust="spacing" textLength="224" x="975.5" y="104.8857">TangibleObject tangibleObject</text><line style="stroke:#181818;stroke-width:0.5;" x1="956.5" x2="1204.5" y1="112.1875" y2="112.1875"/><ellipse cx="966.5" cy="125.8359" fill="#84BE84" rx="3" ry="3" style="stroke:#038048;stroke-width:1.0;"/><text fill="#000000" font-family="sans-serif" font-size="14" lengthAdjust="spacing" textLength="164" x="975.5" y="129.1826">Module readConfig(int)</text></g><!--class Module--><g id="elem_Module"><rect codeLine="37" fill="#F1F1F1" height="716.1719" id="Module" rx="2.5" ry="2.5" style="stroke:#181818;stroke-width:0.5;" width="338" x="325.5" y="196"/><ellipse cx="464.25" cy="212" fill="#A9DCDF" rx="11" ry="11" style="stroke:#181818;stroke-width:1.0;"/><path d="M466.3281,213.8125 L466.7188,214.7969 L466.3281,214.7969 C465.875,214.7969 465.7656,214.8125 465.6094,214.9219 C465.3594,215.0781 465.2031,215.3594 465.2031,215.6563 C465.2031,215.9219 465.3438,216.1719 465.5625,216.3281 C465.7031,216.4531 465.9063,216.5 466.3281,216.5 L468.6875,216.5 C469.0469,216.5 469.2656,216.4688 469.4063,216.375 C469.6563,216.2344 469.8125,215.9375 469.8125,215.6563 C469.8125,215.375 469.6719,215.125 469.4531,214.9688 C469.2813,214.8281 469.125,214.7969 468.6563,214.7969 L465.2656,206.5938 L461.5938,206.5938 C461.1406,206.5938 461.0156,206.6094 460.8594,206.7031 C460.6094,206.875 460.4531,207.1563 460.4531,207.4375 C460.4531,207.7188 460.5938,207.9688 460.8125,208.1406 C460.9844,208.25 461.1563,208.2813 461.5938,208.2813 L462.6719,208.2813 L460.0313,214.7969 C459.6094,214.7969 459.4531,214.8125 459.2969,214.9219 C459.0469,215.0781 458.8906,215.3594 458.8906,215.6563 C458.8906,216.2188 459.2656,216.5 460.0156,216.5 L462.2813,216.5 C462.6406,216.5 462.8594,216.4688 462.9844,216.375 C463.25,216.2344 463.3906,215.9375 463.3906,215.6563 C463.3906,215.375 463.2656,215.125 463.0469,214.9531 C462.875,214.8281 462.7344,214.7969 462.2813,214.7969 L461.8906,214.7969 L462.2813,213.8125 L466.3281,213.8125 Z M465.625,212.1094 L462.9531,212.1094 L464.2969,208.8438 L465.625,212.1094 Z " fill="#000000"/><text fill="#000000" font-family="sans-serif" font-size="14" font-style="italic" lengthAdjust="spacing" textLength="52" x="484.75" y="216.8467">Module</text><line style="stroke:#181818;stroke-width:0.5;" x1="326.5" x2="662.5" y1="228" y2="228"/><ellipse cx="336.5" cy="241.6484" fill="none" rx="3" ry="3" style="stroke:#038048;stroke-width:1.0;"/><text fill="#000000" font-family="sans-serif" font-size="14" lengthAdjust="spacing" text-decoration="underline" textLength="83" x="345.5" y="244.9951">String slash</text><ellipse cx="336.5" cy="257.9453" fill="none" rx="3" ry="3" style="stroke:#038048;stroke-width:1.0;"/><text fill="#000000" font-family="sans-serif" font-size="14" lengthAdjust="spacing" text-decoration="underline" textLength="117" x="345.5" y="261.292">String resources</text><polygon fill="none" points="336.5,269.2422,340.5,273.2422,336.5,277.2422,332.5,273.2422" style="stroke:#B38D22;stroke-width:1.0;"/><text fill="#000000" font-family="sans-serif" font-size="14" lengthAdjust="spacing" textLength="224" x="345.5" y="277.5889">TangibleObject tangibleObject</text><polygon fill="none" points="336.5,285.5391,340.5,289.5391,336.5,293.5391,332.5,289.5391" style="stroke:#B38D22;stroke-width:1.0;"/><text fill="#000000" font-family="sans-serif" font-size="14" lengthAdjust="spacing" textLength="151" x="345.5" y="293.8857">Group rotationGroup</text><polygon fill="none" points="336.5,301.8359,340.5,305.8359,336.5,309.8359,332.5,305.8359" style="stroke:#B38D22;stroke-width:1.0;"/><text fill="#000000" font-family="sans-serif" font-size="14" lengthAdjust="spacing" textLength="258" x="345.5" y="310.1826">ArrayList&lt;ReactButton&gt; buttonList</text><rect fill="none" height="6" style="stroke:#C82930;stroke-width:1.0;" width="6" x="333.5" y="320.1328"/><text fill="#000000" font-family="sans-serif" font-size="14" lengthAdjust="spacing" textLength="233" x="345.5" y="326.4795">FadeTransition connectIndicator</text><polygon fill="none" points="336.5,334.4297,340.5,338.4297,336.5,342.4297,332.5,338.4297" style="stroke:#B38D22;stroke-width:1.0;"/><text fill="#000000" font-family="sans-serif" font-size="14" lengthAdjust="spacing" textLength="133" x="345.5" y="342.7764">Color moduleColor</text><rect fill="none" height="6" style="stroke:#C82930;stroke-width:1.0;" width="6" x="333.5" y="352.7266"/><text fill="#000000" font-family="sans-serif" font-size="14" lengthAdjust="spacing" textLength="152" x="345.5" y="359.0732">Boolean connectable</text><rect fill="none" height="6" style="stroke:#C82930;stroke-width:1.0;" width="6" x="333.5" y="369.0234"/><text fill="#000000" font-family="sans-serif" font-size="14" lengthAdjust="spacing" textLength="217" x="345.5" y="375.3701">Boolean connectionScheduled</text><rect fill="none" height="6" style="stroke:#C82930;stroke-width:1.0;" width="6" x="333.5" y="385.3203"/><text fill="#000000" font-family="sans-serif" font-size="14" lengthAdjust="spacing" textLength="139" x="345.5" y="391.667">Boolean connected</text><rect fill="none" height="6" style="stroke:#C82930;stroke-width:1.0;" width="6" x="333.5" y="401.6172"/><text fill="#000000" font-family="sans-serif" font-size="14" lengthAdjust="spacing" textLength="158" x="345.5" y="407.9639">Module controlModule</text><polygon fill="none" points="336.5,415.9141,340.5,419.9141,336.5,423.9141,332.5,419.9141" style="stroke:#B38D22;stroke-width:1.0;"/><text fill="#000000" font-family="sans-serif" font-size="14" lengthAdjust="spacing" textLength="220" x="345.5" y="424.2607">ArrayList&lt;Module&gt; moduleList</text><rect fill="none" height="6" style="stroke:#C82930;stroke-width:1.0;" width="6" x="333.5" y="434.2109"/><text fill="#000000" font-family="sans-serif" font-size="14" lengthAdjust="spacing" textLength="145" x="345.5" y="440.5576">Line connectionLine</text><polygon fill="none" points="336.5,448.5078,340.5,452.5078,336.5,456.5078,332.5,452.5078" style="stroke:#B38D22;stroke-width:1.0;"/><text fill="#000000" font-family="sans-serif" font-size="14" lengthAdjust="spacing" textLength="275" x="345.5" y="456.8545">ReactButton cancelConnectionButton</text><polygon fill="none" points="336.5,464.8047,340.5,468.8047,336.5,472.8047,332.5,468.8047" style="stroke:#B38D22;stroke-width:1.0;"/><text fill="#000000" font-family="sans-serif" font-size="14" lengthAdjust="spacing" textLength="129" x="345.5" y="473.1514">DecimalFormat df</text><polygon fill="none" points="336.5,482.1016,332.5,488.1016,340.5,488.1016" style="stroke:#1963A0;stroke-width:1.0;"/><text fill="#000000" font-family="sans-serif" font-size="14" lengthAdjust="spacing" textLength="125" x="345.5" y="489.4482">Rectangle fillLeft</text><line style="stroke:#181818;stroke-width:0.5;" x1="326.5" x2="662.5" y1="496.75" y2="496.75"/><ellipse cx="336.5" cy="510.3984" fill="#84BE84" rx="3" ry="3" style="stroke:#038048;stroke-width:1.0;"/><text fill="#000000" font-family="sans-serif" font-size="14" lengthAdjust="spacing" textLength="182" x="345.5" y="513.7451">Line getConnectionLine()</text><ellipse cx="336.5" cy="526.6953" fill="#84BE84" rx="3" ry="3" style="stroke:#038048;stroke-width:1.0;"/><text fill="#000000" font-family="sans-serif" font-size="14" lengthAdjust="spacing" textLength="162" x="345.5" y="530.042">Rectangle getFillLeft()</text><ellipse cx="336.5" cy="542.9922" fill="#84BE84" rx="3" ry="3" style="stroke:#038048;stroke-width:1.0;"/><text fill="#000000" font-family="sans-serif" font-size="14" lengthAdjust="spacing" textLength="166" x="345.5" y="546.3389">DecimalFormat getDf()</text><ellipse cx="336.5" cy="559.2891" fill="#84BE84" rx="3" ry="3" style="stroke:#038048;stroke-width:1.0;"/><text fill="#000000" font-family="sans-serif" font-size="14" lengthAdjust="spacing" textLength="190" x="345.5" y="562.6357">Group getRotationGroup()</text><polygon fill="#FFFF44" points="336.5,570.5859,340.5,574.5859,336.5,578.5859,332.5,574.5859" style="stroke:#B38D22;stroke-width:1.0;"/><text fill="#000000" font-family="sans-serif" font-size="14" lengthAdjust="spacing" textLength="196" x="345.5" y="578.9326">Color createRandomColor()</text><ellipse cx="336.5" cy="591.8828" fill="#84BE84" rx="3" ry="3" style="stroke:#038048;stroke-width:1.0;"/><text fill="#000000" font-family="sans-serif" font-size="14" lengthAdjust="spacing" textLength="253" x="345.5" y="595.2295">ArrayList&lt;Module&gt; getModuleList()</text><ellipse cx="336.5" cy="608.1797" fill="#84BE84" rx="3" ry="3" style="stroke:#038048;stroke-width:1.0;"/><text fill="#000000" font-family="sans-serif" font-size="14" lengthAdjust="spacing" textLength="194" x="345.5" y="611.5264">void setModuleColor(Color)</text><ellipse cx="336.5" cy="624.4766" fill="#84BE84" rx="3" ry="3" style="stroke:#038048;stroke-width:1.0;"/><text fill="#000000" font-family="sans-serif" font-size="14" lengthAdjust="spacing" textLength="251" x="345.5" y="627.8232">void addCancelConnectionButton()</text><ellipse cx="336.5" cy="640.7734" fill="#84BE84" rx="3" ry="3" style="stroke:#038048;stroke-width:1.0;"/><text fill="#000000" font-family="sans-serif" font-size="14" lengthAdjust="spacing" textLength="261" x="345.5" y="644.1201">TangibleObject getTangibleObject()</text><ellipse cx="336.5" cy="657.0703" fill="#84BE84" rx="3" ry="3" style="stroke:#038048;stroke-width:1.0;"/><text fill="#000000" font-family="sans-serif" font-size="14" lengthAdjust="spacing" textLength="240" x="345.5" y="660.417">Boolean isConnectionScheduled()</text><ellipse cx="336.5" cy="673.3672" fill="#84BE84" rx="3" ry="3" style="stroke:#038048;stroke-width:1.0;"/><text fill="#000000" font-family="sans-serif" font-size="14" lengthAdjust="spacing" textLength="282" x="345.5" y="676.7139">void setConnectionScheduled(Boolean)</text><ellipse cx="336.5" cy="689.6641" fill="#84BE84" rx="3" ry="3" style="stroke:#038048;stroke-width:1.0;"/><text fill="#000000" font-family="sans-serif" font-size="14" lengthAdjust="spacing" textLength="241" x="345.5" y="693.0107">void scheduleConnection(Module)</text><ellipse cx="336.5" cy="705.9609" fill="#84BE84" rx="3" ry="3" style="stroke:#038048;stroke-width:1.0;"/><text fill="#000000" font-family="sans-serif" font-size="14" lengthAdjust="spacing" textLength="181" x="345.5" y="709.3076">Circle getIntersectPane()</text><ellipse cx="336.5" cy="722.2578" fill="#84BE84" rx="3" ry="3" style="stroke:#038048;stroke-width:1.0;"/><text fill="#000000" font-family="sans-serif" font-size="14" lengthAdjust="spacing" textLength="270" x="345.5" y="725.6045">FadeTransition getConnectIndicator()</text><ellipse cx="336.5" cy="738.5547" fill="#84BE84" rx="3" ry="3" style="stroke:#038048;stroke-width:1.0;"/><text fill="#000000" font-family="sans-serif" font-size="14" lengthAdjust="spacing" textLength="293" x="345.5" y="741.9014">ArrayList&lt;ReactButton&gt; getButtonList()</text><ellipse cx="336.5" cy="754.8516" fill="#84BE84" rx="3" ry="3" style="stroke:#038048;stroke-width:1.0;"/><text fill="#000000" font-family="sans-serif" font-size="14" lengthAdjust="spacing" textLength="223" x="345.5" y="758.1982">void setControlModule(Module)</text><ellipse cx="336.5" cy="771.1484" fill="#84BE84" rx="3" ry="3" style="stroke:#038048;stroke-width:1.0;"/><text fill="#000000" font-family="sans-serif" font-size="14" lengthAdjust="spacing" textLength="195" x="345.5" y="774.4951">Module getControlModule()</text><ellipse cx="336.5" cy="787.4453" fill="#84BE84" rx="3" ry="3" style="stroke:#038048;stroke-width:1.0;"/><text fill="#000000" font-family="sans-serif" font-size="14" lengthAdjust="spacing" textLength="189" x="345.5" y="790.792">void unsetControlModule()</text><ellipse cx="336.5" cy="803.7422" fill="#84BE84" rx="3" ry="3" style="stroke:#038048;stroke-width:1.0;"/><text fill="#000000" font-family="sans-serif" font-size="14" lengthAdjust="spacing" textLength="175" x="345.5" y="807.0889">Boolean isConnectable()</text><ellipse cx="336.5" cy="820.0391" fill="#84BE84" rx="3" ry="3" style="stroke:#038048;stroke-width:1.0;"/><text fill="#000000" font-family="sans-serif" font-size="14" lengthAdjust="spacing" textLength="217" x="345.5" y="823.3857">void setConnectable(Boolean)</text><ellipse cx="336.5" cy="836.3359" fill="#84BE84" rx="3" ry="3" style="stroke:#038048;stroke-width:1.0;"/><text fill="#000000" font-family="sans-serif" font-size="14" lengthAdjust="spacing" textLength="162" x="345.5" y="839.6826">Boolean isConnected()</text><ellipse cx="336.5" cy="852.6328" fill="#84BE84" rx="3" ry="3" style="stroke:#038048;stroke-width:1.0;"/><text fill="#000000" font-family="sans-serif" font-size="14" lengthAdjust="spacing" textLength="204" x="345.5" y="855.9795">void setConnected(Boolean)</text><ellipse cx="336.5" cy="868.9297" fill="#84BE84" rx="3" ry="3" style="stroke:#038048;stroke-width:1.0;"/><text fill="#000000" font-family="sans-serif" font-size="14" lengthAdjust="spacing" textLength="312" x="345.5" y="872.2764">ReactButton getCancelConnectionButton()</text><ellipse cx="336.5" cy="885.2266" fill="#84BE84" rx="3" ry="3" style="stroke:#038048;stroke-width:1.0;"/><text fill="#000000" font-family="sans-serif" font-size="14" lengthAdjust="spacing" textLength="123" x="345.5" y="888.5732">void disconnect()</text><ellipse cx="336.5" cy="901.5234" fill="#84BE84" rx="3" ry="3" style="stroke:#038048;stroke-width:1.0;"/><text fill="#000000" font-family="sans-serif" font-size="14" lengthAdjust="spacing" textLength="74" x="345.5" y="904.8701">void lock()</text></g><!--class TangibleObject--><g id="elem_TangibleObject"><rect codeLine="80" fill="#F1F1F1" height="210.9688" id="TangibleObject" rx="2.5" ry="2.5" style="stroke:#181818;stroke-width:0.5;" width="283" x="699" y="448.5"/><ellipse cx="780.75" cy="464.5" fill="#ADD1B2" rx="11" ry="11" style="stroke:#181818;stroke-width:1.0;"/><path d="M783.0938,460.1719 C782.1563,459.7344 781.5625,459.5938 780.6875,459.5938 C778.0625,459.5938 776.0625,461.6719 776.0625,464.3906 L776.0625,465.5156 C776.0625,468.0938 778.1719,469.9844 781.0625,469.9844 C782.2813,469.9844 783.4375,469.6875 784.1875,469.1406 C784.7656,468.7344 785.0938,468.2813 785.0938,467.8906 C785.0938,467.4375 784.7031,467.0469 784.2344,467.0469 C784.0156,467.0469 783.8125,467.125 783.625,467.3125 C783.1719,467.7969 783.1719,467.7969 782.9844,467.8906 C782.5625,468.1563 781.875,468.2813 781.1094,468.2813 C779.0625,468.2813 777.7656,467.1875 777.7656,465.4844 L777.7656,464.3906 C777.7656,462.6094 779.0156,461.2969 780.75,461.2969 C781.3281,461.2969 781.9375,461.4531 782.4063,461.7031 C782.8906,461.9844 783.0625,462.2031 783.1563,462.6094 C783.2188,463.0156 783.25,463.1406 783.3906,463.2656 C783.5313,463.4063 783.7656,463.5156 783.9844,463.5156 C784.25,463.5156 784.5156,463.375 784.6875,463.1563 C784.7969,463 784.8281,462.8125 784.8281,462.3906 L784.8281,460.9688 C784.8281,460.5313 784.8125,460.4063 784.7188,460.25 C784.5625,459.9844 784.2813,459.8438 783.9844,459.8438 C783.6875,459.8438 783.4844,459.9375 783.2656,460.25 L783.0938,460.1719 Z " fill="#000000"/><text fill="#000000" font-family="sans-serif" font-size="14" lengthAdjust="spacing" textLength="111" x="801.25" y="469.3467">TangibleObject</text><line style="stroke:#181818;stroke-width:0.5;" x1="700" x2="981" y1="480.5" y2="480.5"/><rect fill="none" height="6" style="stroke:#C82930;stroke-width:1.0;" width="6" x="707" y="491.1484"/><text fill="#000000" font-family="sans-serif" font-size="14" lengthAdjust="spacing" textLength="159" x="719" y="497.4951">Rectangle objectPane</text><rect fill="none" height="6" style="stroke:#C82930;stroke-width:1.0;" width="6" x="707" y="507.4453"/><text fill="#000000" font-family="sans-serif" font-size="14" lengthAdjust="spacing" textLength="146" x="719" y="513.792">Circle intersectPane</text><rect fill="none" height="6" style="stroke:#C82930;stroke-width:1.0;" width="6" x="707" y="523.7422"/><text fill="#000000" font-family="sans-serif" font-size="14" lengthAdjust="spacing" textLength="113" x="719" y="530.0889">Circle dashPane</text><rect fill="none" height="6" style="stroke:#C82930;stroke-width:1.0;" width="6" x="707" y="540.0391"/><text fill="#000000" font-family="sans-serif" font-size="14" lengthAdjust="spacing" textLength="108" x="719" y="546.3857">Module module</text><rect fill="none" height="6" style="stroke:#C82930;stroke-width:1.0;" width="6" x="707" y="556.3359"/><text fill="#000000" font-family="sans-serif" font-size="14" lengthAdjust="spacing" textLength="135" x="719" y="562.6826">TuioObject marker</text><line style="stroke:#181818;stroke-width:0.5;" x1="700" x2="981" y1="569.9844" y2="569.9844"/><ellipse cx="710" cy="583.6328" fill="#84BE84" rx="3" ry="3" style="stroke:#038048;stroke-width:1.0;"/><text fill="#000000" font-family="sans-serif" font-size="14" lengthAdjust="spacing" textLength="181" x="719" y="586.9795">Circle getIntersectPane()</text><ellipse cx="710" cy="599.9297" fill="#84BE84" rx="3" ry="3" style="stroke:#038048;stroke-width:1.0;"/><text fill="#000000" font-family="sans-serif" font-size="14" lengthAdjust="spacing" textLength="196" x="719" y="603.2764">Rectangle getObjectPane()</text><ellipse cx="710" cy="616.2266" fill="#84BE84" rx="3" ry="3" style="stroke:#038048;stroke-width:1.0;"/><text fill="#000000" font-family="sans-serif" font-size="14" lengthAdjust="spacing" textLength="168" x="719" y="619.5732">TuioObject getMarker()</text><ellipse cx="710" cy="632.5234" fill="#84BE84" rx="3" ry="3" style="stroke:#038048;stroke-width:1.0;"/><text fill="#000000" font-family="sans-serif" font-size="14" lengthAdjust="spacing" textLength="141" x="719" y="635.8701">Module getModule()</text><ellipse cx="710" cy="648.8203" fill="#84BE84" rx="3" ry="3" style="stroke:#038048;stroke-width:1.0;"/><text fill="#000000" font-family="sans-serif" font-size="14" lengthAdjust="spacing" textLength="257" x="719" y="652.167">void setPosition(TuioObject,double)</text></g><!--class ControllableModule--><g id="elem_ControllableModule"><rect codeLine="92" fill="#F1F1F1" height="80.5938" id="ControllableModule" rx="2.5" ry="2.5" style="stroke:#181818;stroke-width:0.5;" width="200" x="534.5" y="1077.5"/><ellipse cx="562.55" cy="1093.5" fill="#A9DCDF" rx="11" ry="11" style="stroke:#181818;stroke-width:1.0;"/><path d="M564.6281,1095.3125 L565.0188,1096.2969 L564.6281,1096.2969 C564.175,1096.2969 564.0656,1096.3125 563.9094,1096.4219 C563.6594,1096.5781 563.5031,1096.8594 563.5031,1097.1563 C563.5031,1097.4219 563.6438,1097.6719 563.8625,1097.8281 C564.0031,1097.9531 564.2063,1098 564.6281,1098 L566.9875,1098 C567.3469,1098 567.5656,1097.9688 567.7063,1097.875 C567.9563,1097.7344 568.1125,1097.4375 568.1125,1097.1563 C568.1125,1096.875 567.9719,1096.625 567.7531,1096.4688 C567.5813,1096.3281 567.425,1096.2969 566.9563,1096.2969 L563.5656,1088.0938 L559.8938,1088.0938 C559.4406,1088.0938 559.3156,1088.1094 559.1594,1088.2031 C558.9094,1088.375 558.7531,1088.6563 558.7531,1088.9375 C558.7531,1089.2188 558.8938,1089.4688 559.1125,1089.6406 C559.2844,1089.75 559.4563,1089.7813 559.8938,1089.7813 L560.9719,1089.7813 L558.3313,1096.2969 C557.9094,1096.2969 557.7531,1096.3125 557.5969,1096.4219 C557.3469,1096.5781 557.1906,1096.8594 557.1906,1097.1563 C557.1906,1097.7188 557.5656,1098 558.3156,1098 L560.5813,1098 C560.9406,1098 561.1594,1097.9688 561.2844,1097.875 C561.55,1097.7344 561.6906,1097.4375 561.6906,1097.1563 C561.6906,1096.875 561.5656,1096.625 561.3469,1096.4531 C561.175,1096.3281 561.0344,1096.2969 560.5813,1096.2969 L560.1906,1096.2969 L560.5813,1095.3125 L564.6281,1095.3125 Z M563.925,1093.6094 L561.2531,1093.6094 L562.5969,1090.3438 L563.925,1093.6094 Z " fill="#000000"/><text fill="#000000" font-family="sans-serif" font-size="14" font-style="italic" lengthAdjust="spacing" textLength="139" x="579.45" y="1098.3467">ControllableModule</text><line style="stroke:#181818;stroke-width:0.5;" x1="535.5" x2="733.5" y1="1109.5" y2="1109.5"/><line style="stroke:#181818;stroke-width:0.5;" x1="535.5" x2="733.5" y1="1117.5" y2="1117.5"/><ellipse cx="545.5" cy="1131.1484" fill="#84BE84" rx="3" ry="3" style="stroke:#038048;stroke-width:1.0;"/><text fill="#000000" font-family="sans-serif" font-size="14" lengthAdjust="spacing" textLength="123" x="554.5" y="1134.4951">void disconnect()</text><ellipse cx="545.5" cy="1147.4453" fill="#84BE84" rx="3" ry="3" style="stroke:#038048;stroke-width:1.0;"/><text fill="#000000" font-family="sans-serif" font-size="14" lengthAdjust="spacing" textLength="174" x="554.5" y="1150.792">void setPosition(double)</text></g><!--class Controller--><g id="elem_Controller"><rect codeLine="96" fill="#F1F1F1" height="210.9688" id="Controller" rx="2.5" ry="2.5" style="stroke:#181818;stroke-width:0.5;" width="403" x="1169" y="448.5"/><ellipse cx="1330.75" cy="464.5" fill="#A9DCDF" rx="11" ry="11" style="stroke:#181818;stroke-width:1.0;"/><path d="M1332.8281,466.3125 L1333.2188,467.2969 L1332.8281,467.2969 C1332.375,467.2969 1332.2656,467.3125 1332.1094,467.4219 C1331.8594,467.5781 1331.7031,467.8594 1331.7031,468.1563 C1331.7031,468.4219 1331.8438,468.6719 1332.0625,468.8281 C1332.2031,468.9531 1332.4063,469 1332.8281,469 L1335.1875,469 C1335.5469,469 1335.7656,468.9688 1335.9063,468.875 C1336.1563,468.7344 1336.3125,468.4375 1336.3125,468.1563 C1336.3125,467.875 1336.1719,467.625 1335.9531,467.4688 C1335.7813,467.3281 1335.625,467.2969 1335.1563,467.2969 L1331.7656,459.0938 L1328.0938,459.0938 C1327.6406,459.0938 1327.5156,459.1094 1327.3594,459.2031 C1327.1094,459.375 1326.9531,459.6563 1326.9531,459.9375 C1326.9531,460.2188 1327.0938,460.4688 1327.3125,460.6406 C1327.4844,460.75 1327.6563,460.7813 1328.0938,460.7813 L1329.1719,460.7813 L1326.5313,467.2969 C1326.1094,467.2969 1325.9531,467.3125 1325.7969,467.4219 C1325.5469,467.5781 1325.3906,467.8594 1325.3906,468.1563 C1325.3906,468.7188 1325.7656,469 1326.5156,469 L1328.7813,469 C1329.1406,469 1329.3594,468.9688 1329.4844,468.875 C1329.75,468.7344 1329.8906,468.4375 1329.8906,468.1563 C1329.8906,467.875 1329.7656,467.625 1329.5469,467.4531 C1329.375,467.3281 1329.2344,467.2969 1328.7813,467.2969 L1328.3906,467.2969 L1328.7813,466.3125 L1332.8281,466.3125 Z M1332.125,464.6094 L1329.4531,464.6094 L1330.7969,461.3438 L1332.125,464.6094 Z " fill="#000000"/><text fill="#000000" font-family="sans-serif" font-size="14" font-style="italic" lengthAdjust="spacing" textLength="71" x="1351.25" y="469.3467">Controller</text><line style="stroke:#181818;stroke-width:0.5;" x1="1170" x2="1571" y1="480.5" y2="480.5"/><ellipse cx="1180" cy="494.1484" fill="none" rx="3" ry="3" style="stroke:#038048;stroke-width:1.0;"/><text fill="#000000" font-family="sans-serif" font-size="14" lengthAdjust="spacing" text-decoration="underline" textLength="377" x="1189" y="497.4951">HashMap&lt;TuioCursor,FingerTouchObject&gt; cursorList</text><ellipse cx="1180" cy="510.4453" fill="none" rx="3" ry="3" style="stroke:#038048;stroke-width:1.0;"/><text fill="#000000" font-family="sans-serif" font-size="14" lengthAdjust="spacing" text-decoration="underline" textLength="357" x="1189" y="513.792">HashMap&lt;TuioObject,TangibleObject&gt; objectList</text><ellipse cx="1180" cy="526.7422" fill="none" rx="3" ry="3" style="stroke:#038048;stroke-width:1.0;"/><text fill="#000000" font-family="sans-serif" font-size="14" lengthAdjust="spacing" text-decoration="underline" textLength="257" x="1189" y="530.0889">ArrayList&lt;Line&gt; connectionLineList</text><ellipse cx="1180" cy="543.0391" fill="none" rx="3" ry="3" style="stroke:#038048;stroke-width:1.0;"/><text fill="#000000" font-family="sans-serif" font-size="14" lengthAdjust="spacing" text-decoration="underline" textLength="353" x="1189" y="546.3857">ArrayList&lt;PCBLaneModule&gt; PCB_LANE_MODULES</text><ellipse cx="1180" cy="559.3359" fill="none" rx="3" ry="3" style="stroke:#038048;stroke-width:1.0;"/><text fill="#000000" font-family="sans-serif" font-size="14" lengthAdjust="spacing" text-decoration="underline" textLength="265" x="1189" y="562.6826">PCBLaneModule CURRENT_PCB_LANE</text><polygon fill="none" points="1180,570.6328,1184,574.6328,1180,578.6328,1176,574.6328" style="stroke:#B38D22;stroke-width:1.0;"/><text fill="#000000" font-family="sans-serif" font-size="14" lengthAdjust="spacing" textLength="112" x="1189" y="578.9795">KeyPolling keys</text><polygon fill="none" points="1180,586.9297,1184,590.9297,1180,594.9297,1176,590.9297" style="stroke:#B38D22;stroke-width:1.0;"/><text fill="#000000" font-family="sans-serif" font-size="14" lengthAdjust="spacing" textLength="118" x="1189" y="595.2764">TuioClient client</text><polygon fill="none" points="1180,603.2266,1184,607.2266,1180,611.2266,1176,607.2266" style="stroke:#B38D22;stroke-width:1.0;"/><text fill="#000000" font-family="sans-serif" font-size="14" lengthAdjust="spacing" textLength="107" x="1189" y="611.5732">double xOffset</text><polygon fill="none" points="1180,619.5234,1184,623.5234,1180,627.5234,1176,623.5234" style="stroke:#B38D22;stroke-width:1.0;"/><text fill="#000000" font-family="sans-serif" font-size="14" lengthAdjust="spacing" textLength="107" x="1189" y="627.8701">double yOffset</text><line style="stroke:#181818;stroke-width:0.5;" x1="1170" x2="1571" y1="635.1719" y2="635.1719"/><polygon fill="#FFFF44" points="1180,643.8203,1184,647.8203,1180,651.8203,1176,647.8203" style="stroke:#B38D22;stroke-width:1.0;"/><text fill="#000000" font-family="sans-serif" font-size="14" lengthAdjust="spacing" textLength="204" x="1189" y="652.167">void enableDraggable(Node)</text></g><!--class TuioListener--><g id="elem_TuioListener"><rect fill="#F1F1F1" height="48" id="TuioListener" rx="2.5" ry="2.5" style="stroke:#181818;stroke-width:0.5;" width="121" x="88" y="47.5"/><ellipse cx="103" cy="63.5" fill="#ADD1B2" rx="11" ry="11" style="stroke:#181818;stroke-width:1.0;"/><path d="M105.3438,59.1719 C104.4063,58.7344 103.8125,58.5938 102.9375,58.5938 C100.3125,58.5938 98.3125,60.6719 98.3125,63.3906 L98.3125,64.5156 C98.3125,67.0938 100.4219,68.9844 103.3125,68.9844 C104.5313,68.9844 105.6875,68.6875 106.4375,68.1406 C107.0156,67.7344 107.3438,67.2813 107.3438,66.8906 C107.3438,66.4375 106.9531,66.0469 106.4844,66.0469 C106.2656,66.0469 106.0625,66.125 105.875,66.3125 C105.4219,66.7969 105.4219,66.7969 105.2344,66.8906 C104.8125,67.1563 104.125,67.2813 103.3594,67.2813 C101.3125,67.2813 100.0156,66.1875 100.0156,64.4844 L100.0156,63.3906 C100.0156,61.6094 101.2656,60.2969 103,60.2969 C103.5781,60.2969 104.1875,60.4531 104.6563,60.7031 C105.1406,60.9844 105.3125,61.2031 105.4063,61.6094 C105.4688,62.0156 105.5,62.1406 105.6406,62.2656 C105.7813,62.4063 106.0156,62.5156 106.2344,62.5156 C106.5,62.5156 106.7656,62.375 106.9375,62.1563 C107.0469,62 107.0781,61.8125 107.0781,61.3906 L107.0781,59.9688 C107.0781,59.5313 107.0625,59.4063 106.9688,59.25 C106.8125,58.9844 106.5313,58.8438 106.2344,58.8438 C105.9375,58.8438 105.7344,58.9375 105.5156,59.25 L105.3438,59.1719 Z " fill="#000000"/><text fill="#000000" font-family="sans-serif" font-size="14" lengthAdjust="spacing" textLength="89" x="117" y="68.3467">TuioListener</text><line style="stroke:#181818;stroke-width:0.5;" x1="89" x2="208" y1="79.5" y2="79.5"/><line style="stroke:#181818;stroke-width:0.5;" x1="89" x2="208" y1="87.5" y2="87.5"/></g><!--class ModuleInterface--><g id="elem_ModuleInterface"><rect fill="#F1F1F1" height="48" id="ModuleInterface" rx="2.5" ry="2.5" style="stroke:#181818;stroke-width:0.5;" width="149" x="420" y="47.5"/><ellipse cx="435" cy="63.5" fill="#ADD1B2" rx="11" ry="11" style="stroke:#181818;stroke-width:1.0;"/><path d="M437.3438,59.1719 C436.4063,58.7344 435.8125,58.5938 434.9375,58.5938 C432.3125,58.5938 430.3125,60.6719 430.3125,63.3906 L430.3125,64.5156 C430.3125,67.0938 432.4219,68.9844 435.3125,68.9844 C436.5313,68.9844 437.6875,68.6875 438.4375,68.1406 C439.0156,67.7344 439.3438,67.2813 439.3438,66.8906 C439.3438,66.4375 438.9531,66.0469 438.4844,66.0469 C438.2656,66.0469 438.0625,66.125 437.875,66.3125 C437.4219,66.7969 437.4219,66.7969 437.2344,66.8906 C436.8125,67.1563 436.125,67.2813 435.3594,67.2813 C433.3125,67.2813 432.0156,66.1875 432.0156,64.4844 L432.0156,63.3906 C432.0156,61.6094 433.2656,60.2969 435,60.2969 C435.5781,60.2969 436.1875,60.4531 436.6563,60.7031 C437.1406,60.9844 437.3125,61.2031 437.4063,61.6094 C437.4688,62.0156 437.5,62.1406 437.6406,62.2656 C437.7813,62.4063 438.0156,62.5156 438.2344,62.5156 C438.5,62.5156 438.7656,62.375 438.9375,62.1563 C439.0469,62 439.0781,61.8125 439.0781,61.3906 L439.0781,59.9688 C439.0781,59.5313 439.0625,59.4063 438.9688,59.25 C438.8125,58.9844 438.5313,58.8438 438.2344,58.8438 C437.9375,58.8438 437.7344,58.9375 437.5156,59.25 L437.3438,59.1719 Z " fill="#000000"/><text fill="#000000" font-family="sans-serif" font-size="14" lengthAdjust="spacing" textLength="117" x="449" y="68.3467">ModuleInterface</text><line style="stroke:#181818;stroke-width:0.5;" x1="421" x2="568" y1="79.5" y2="79.5"/><line style="stroke:#181818;stroke-width:0.5;" x1="421" x2="568" y1="87.5" y2="87.5"/></g><!--class Group--><g id="elem_Group"><rect fill="#F1F1F1" height="48" id="Group" rx="2.5" ry="2.5" style="stroke:#181818;stroke-width:0.5;" width="76" x="627.5" y="47.5"/><ellipse cx="642.5" cy="63.5" fill="#ADD1B2" rx="11" ry="11" style="stroke:#181818;stroke-width:1.0;"/><path d="M644.8438,59.1719 C643.9063,58.7344 643.3125,58.5938 642.4375,58.5938 C639.8125,58.5938 637.8125,60.6719 637.8125,63.3906 L637.8125,64.5156 C637.8125,67.0938 639.9219,68.9844 642.8125,68.9844 C644.0313,68.9844 645.1875,68.6875 645.9375,68.1406 C646.5156,67.7344 646.8438,67.2813 646.8438,66.8906 C646.8438,66.4375 646.4531,66.0469 645.9844,66.0469 C645.7656,66.0469 645.5625,66.125 645.375,66.3125 C644.9219,66.7969 644.9219,66.7969 644.7344,66.8906 C644.3125,67.1563 643.625,67.2813 642.8594,67.2813 C640.8125,67.2813 639.5156,66.1875 639.5156,64.4844 L639.5156,63.3906 C639.5156,61.6094 640.7656,60.2969 642.5,60.2969 C643.0781,60.2969 643.6875,60.4531 644.1563,60.7031 C644.6406,60.9844 644.8125,61.2031 644.9063,61.6094 C644.9688,62.0156 645,62.1406 645.1406,62.2656 C645.2813,62.4063 645.5156,62.5156 645.7344,62.5156 C646,62.5156 646.2656,62.375 646.4375,62.1563 C646.5469,62 646.5781,61.8125 646.5781,61.3906 L646.5781,59.9688 C646.5781,59.5313 646.5625,59.4063 646.4688,59.25 C646.3125,58.9844 646.0313,58.8438 645.7344,58.8438 C645.4375,58.8438 645.2344,58.9375 645.0156,59.25 L644.8438,59.1719 Z " fill="#000000"/><text fill="#000000" font-family="sans-serif" font-size="14" lengthAdjust="spacing" textLength="44" x="656.5" y="68.3467">Group</text><line style="stroke:#181818;stroke-width:0.5;" x1="628.5" x2="702.5" y1="79.5" y2="79.5"/><line style="stroke:#181818;stroke-width:0.5;" x1="628.5" x2="702.5" y1="87.5" y2="87.5"/></g><!--class TangibleInterface--><g id="elem_TangibleInterface"><rect fill="#F1F1F1" height="48" id="TangibleInterface" rx="2.5" ry="2.5" style="stroke:#181818;stroke-width:0.5;" width="160" x="760.5" y="47.5"/><ellipse cx="775.5" cy="63.5" fill="#ADD1B2" rx="11" ry="11" style="stroke:#181818;stroke-width:1.0;"/><path d="M777.8438,59.1719 C776.9063,58.7344 776.3125,58.5938 775.4375,58.5938 C772.8125,58.5938 770.8125,60.6719 770.8125,63.3906 L770.8125,64.5156 C770.8125,67.0938 772.9219,68.9844 775.8125,68.9844 C777.0313,68.9844 778.1875,68.6875 778.9375,68.1406 C779.5156,67.7344 779.8438,67.2813 779.8438,66.8906 C779.8438,66.4375 779.4531,66.0469 778.9844,66.0469 C778.7656,66.0469 778.5625,66.125 778.375,66.3125 C777.9219,66.7969 777.9219,66.7969 777.7344,66.8906 C777.3125,67.1563 776.625,67.2813 775.8594,67.2813 C773.8125,67.2813 772.5156,66.1875 772.5156,64.4844 L772.5156,63.3906 C772.5156,61.6094 773.7656,60.2969 775.5,60.2969 C776.0781,60.2969 776.6875,60.4531 777.1563,60.7031 C777.6406,60.9844 777.8125,61.2031 777.9063,61.6094 C777.9688,62.0156 778,62.1406 778.1406,62.2656 C778.2813,62.4063 778.5156,62.5156 778.7344,62.5156 C779,62.5156 779.2656,62.375 779.4375,62.1563 C779.5469,62 779.5781,61.8125 779.5781,61.3906 L779.5781,59.9688 C779.5781,59.5313 779.5625,59.4063 779.4688,59.25 C779.3125,58.9844 779.0313,58.8438 778.7344,58.8438 C778.4375,58.8438 778.2344,58.9375 778.0156,59.25 L777.8438,59.1719 Z " fill="#000000"/><text fill="#000000" font-family="sans-serif" font-size="14" lengthAdjust="spacing" textLength="128" x="789.5" y="68.3467">TangibleInterface</text><line style="stroke:#181818;stroke-width:0.5;" x1="761.5" x2="919.5" y1="79.5" y2="79.5"/><line style="stroke:#181818;stroke-width:0.5;" x1="761.5" x2="919.5" y1="87.5" y2="87.5"/></g><!--class Initializable--><g id="elem_Initializable"><rect fill="#F1F1F1" height="48" id="Initializable" rx="2.5" ry="2.5" style="stroke:#181818;stroke-width:0.5;" width="115" x="1241" y="47.5"/><ellipse cx="1256" cy="63.5" fill="#ADD1B2" rx="11" ry="11" style="stroke:#181818;stroke-width:1.0;"/><path d="M1258.3438,59.1719 C1257.4063,58.7344 1256.8125,58.5938 1255.9375,58.5938 C1253.3125,58.5938 1251.3125,60.6719 1251.3125,63.3906 L1251.3125,64.5156 C1251.3125,67.0938 1253.4219,68.9844 1256.3125,68.9844 C1257.5313,68.9844 1258.6875,68.6875 1259.4375,68.1406 C1260.0156,67.7344 1260.3438,67.2813 1260.3438,66.8906 C1260.3438,66.4375 1259.9531,66.0469 1259.4844,66.0469 C1259.2656,66.0469 1259.0625,66.125 1258.875,66.3125 C1258.4219,66.7969 1258.4219,66.7969 1258.2344,66.8906 C1257.8125,67.1563 1257.125,67.2813 1256.3594,67.2813 C1254.3125,67.2813 1253.0156,66.1875 1253.0156,64.4844 L1253.0156,63.3906 C1253.0156,61.6094 1254.2656,60.2969 1256,60.2969 C1256.5781,60.2969 1257.1875,60.4531 1257.6563,60.7031 C1258.1406,60.9844 1258.3125,61.2031 1258.4063,61.6094 C1258.4688,62.0156 1258.5,62.1406 1258.6406,62.2656 C1258.7813,62.4063 1259.0156,62.5156 1259.2344,62.5156 C1259.5,62.5156 1259.7656,62.375 1259.9375,62.1563 C1260.0469,62 1260.0781,61.8125 1260.0781,61.3906 L1260.0781,59.9688 C1260.0781,59.5313 1260.0625,59.4063 1259.9688,59.25 C1259.8125,58.9844 1259.5313,58.8438 1259.2344,58.8438 C1258.9375,58.8438 1258.7344,58.9375 1258.5156,59.25 L1258.3438,59.1719 Z " fill="#000000"/><text fill="#000000" font-family="sans-serif" font-size="14" lengthAdjust="spacing" textLength="83" x="1270" y="68.3467">Initializable</text><line style="stroke:#181818;stroke-width:0.5;" x1="1242" x2="1355" y1="79.5" y2="79.5"/><line style="stroke:#181818;stroke-width:0.5;" x1="1242" x2="1355" y1="87.5" y2="87.5"/></g><!--class AppTimer--><g id="elem_AppTimer"><rect fill="#F1F1F1" height="48" id="AppTimer" rx="2.5" ry="2.5" style="stroke:#181818;stroke-width:0.5;" width="104" x="1391.5" y="47.5"/><ellipse cx="1406.5" cy="63.5" fill="#ADD1B2" rx="11" ry="11" style="stroke:#181818;stroke-width:1.0;"/><path d="M1408.8438,59.1719 C1407.9063,58.7344 1407.3125,58.5938 1406.4375,58.5938 C1403.8125,58.5938 1401.8125,60.6719 1401.8125,63.3906 L1401.8125,64.5156 C1401.8125,67.0938 1403.9219,68.9844 1406.8125,68.9844 C1408.0313,68.9844 1409.1875,68.6875 1409.9375,68.1406 C1410.5156,67.7344 1410.8438,67.2813 1410.8438,66.8906 C1410.8438,66.4375 1410.4531,66.0469 1409.9844,66.0469 C1409.7656,66.0469 1409.5625,66.125 1409.375,66.3125 C1408.9219,66.7969 1408.9219,66.7969 1408.7344,66.8906 C1408.3125,67.1563 1407.625,67.2813 1406.8594,67.2813 C1404.8125,67.2813 1403.5156,66.1875 1403.5156,64.4844 L1403.5156,63.3906 C1403.5156,61.6094 1404.7656,60.2969 1406.5,60.2969 C1407.0781,60.2969 1407.6875,60.4531 1408.1563,60.7031 C1408.6406,60.9844 1408.8125,61.2031 1408.9063,61.6094 C1408.9688,62.0156 1409,62.1406 1409.1406,62.2656 C1409.2813,62.4063 1409.5156,62.5156 1409.7344,62.5156 C1410,62.5156 1410.2656,62.375 1410.4375,62.1563 C1410.5469,62 1410.5781,61.8125 1410.5781,61.3906 L1410.5781,59.9688 C1410.5781,59.5313 1410.5625,59.4063 1410.4688,59.25 C1410.3125,58.9844 1410.0313,58.8438 1409.7344,58.8438 C1409.4375,58.8438 1409.2344,58.9375 1409.0156,59.25 L1408.8438,59.1719 Z " fill="#000000"/><text fill="#000000" font-family="sans-serif" font-size="14" lengthAdjust="spacing" textLength="72" x="1420.5" y="68.3467">AppTimer</text><line style="stroke:#181818;stroke-width:0.5;" x1="1392.5" x2="1494.5" y1="79.5" y2="79.5"/><line style="stroke:#181818;stroke-width:0.5;" x1="1392.5" x2="1494.5" y1="87.5" y2="87.5"/></g><!--reverse link TuioListener to MarkerListener--><g id="link_TuioListener_MarkerListener"><path codeLine="110" d="M148.5,113.68 C148.5,176.29 148.5,333.827 148.5,448.313 " fill="none" id="TuioListener-backto-MarkerListener" style="stroke:#181818;stroke-width:1.0;stroke-dasharray:7.0,7.0;"/><polygon fill="none" points="148.5,95.68,142.5,113.68,154.5,113.68,148.5,95.68" style="stroke:#181818;stroke-width:1.0;"/></g><!--reverse link Module to ControlModule--><g id="link_Module_ControlModule"><path codeLine="111" d="M401.1872,929.5833 C396.0292,950.2903 395.371,952.934 390.634,971.95 " fill="none" id="Module-backto-ControlModule" style="stroke:#181818;stroke-width:1.0;"/><polygon fill="none" points="405.538,912.117,395.3652,928.133,407.0093,931.0335,405.538,912.117" style="stroke:#181818;stroke-width:1.0;"/></g><!--reverse link ModuleInterface to Module--><g id="link_ModuleInterface_Module"><path codeLine="112" d="M494.5,113.68 C494.5,135.66 494.5,153.55 494.5,195.84 " fill="none" id="ModuleInterface-backto-Module" style="stroke:#181818;stroke-width:1.0;stroke-dasharray:7.0,7.0;"/><polygon fill="none" points="494.5,95.68,488.5,113.68,500.5,113.68,494.5,95.68" style="stroke:#181818;stroke-width:1.0;"/></g><!--reverse link Group to Module--><g id="link_Group_Module"><path codeLine="113" d="M651.2171,112.6382 C643.3951,134.6182 636.655,153.55 621.606,195.84 " fill="none" id="Group-backto-Module" style="stroke:#181818;stroke-width:1.0;"/><polygon fill="none" points="657.252,95.68,645.5644,110.6266,656.8698,114.6498,657.252,95.68" style="stroke:#181818;stroke-width:1.0;"/></g><!--reverse link TangibleInterface to TangibleObject--><g id="link_TangibleInterface_TangibleObject"><path codeLine="114" d="M840.5,113.68 C840.5,176.29 840.5,333.827 840.5,448.313 " fill="none" id="TangibleInterface-backto-TangibleObject" style="stroke:#181818;stroke-width:1.0;stroke-dasharray:7.0,7.0;"/><polygon fill="none" points="840.5,95.68,834.5,113.68,846.5,113.68,840.5,95.68" style="stroke:#181818;stroke-width:1.0;"/></g><!--reverse link Group to TangibleObject--><g id="link_Group_TangibleObject"><path codeLine="115" d="M680.1011,112.5931 C702.9051,175.2031 760.676,333.827 802.373,448.313 " fill="none" id="Group-backto-TangibleObject" style="stroke:#181818;stroke-width:1.0;"/><polygon fill="none" points="673.941,95.68,674.4634,114.6465,685.7388,110.5397,673.941,95.68" style="stroke:#181818;stroke-width:1.0;"/></g><!--reverse link Module to ControllableModule--><g id="link_Module_ControllableModule"><path codeLine="116" d="M587.8128,929.5833 C604.4478,996.3643 615.188,1039.476 624.572,1077.147 " fill="none" id="Module-backto-ControllableModule" style="stroke:#181818;stroke-width:1.0;"/><polygon fill="none" points="583.462,912.117,581.9907,931.0335,593.6349,928.133,583.462,912.117" style="stroke:#181818;stroke-width:1.0;"/></g><!--reverse link Initializable to Controller--><g id="link_Initializable_Controller"><path codeLine="117" d="M1304.6369,113.4813 C1314.0169,176.0913 1337.66,333.827 1354.81,448.313 " fill="none" id="Initializable-backto-Controller" style="stroke:#181818;stroke-width:1.0;stroke-dasharray:7.0,7.0;"/><polygon fill="none" points="1301.97,95.68,1298.7032,114.3703,1310.5707,112.5924,1301.97,95.68" style="stroke:#181818;stroke-width:1.0;"/></g><!--reverse link AppTimer to Controller--><g id="link_AppTimer_Controller"><path codeLine="118" d="M1437.2769,113.4759 C1427.7669,176.0859 1403.8,333.827 1386.4,448.313 " fill="none" id="AppTimer-backto-Controller" style="stroke:#181818;stroke-width:1.0;"/><polygon fill="none" points="1439.98,95.68,1431.345,112.5749,1443.2089,114.3769,1439.98,95.68" style="stroke:#181818;stroke-width:1.0;"/></g><!--SRC=[dLR1Rjiu4BthAmZaeg9Dlo0mOCl9Rb0x2Hnthm5DZMHkADAWgA3UjFljEwGeKPIb1jYBBRsPuL3lpGp91ArhigNw5VI6rmOaQFAUV2PlYkU4vlc-uUhny3SmauR7Jvr3SygfWT_xQAZKsmS-Fb7Mw5hfD3nE99ht2OdcVNoYbL27j7kOI39j3mdcx8M6-kWCUrx1f-HNGW-rqPGPmXpJcP96Ax5LUIC0YRuYEq3hgZ56II8KUqKFYTHm9LkmSxbdwC2P0_Rmmv0tAXfOy_eawDa2aUFGQ87aNpGoGsM9QGikn8wNHuFeKZDIWlbBYQQ2UvbpHetIAyfUIwqQcNkNjzZUVN6DaQDjf0zDTO30-9JBiz5SbhzrwJzbpilQnWknbhkqfRU7SrvxorA8j8Sjsn606PvKpIttQQwQWt0AjiBje5QDPk2Quxqsr73sYxJvIOqknmbS-w0wkUuWt4Z1onUK013Seo0SyxJjG4pqYWlwEj50yym5fboQYRBgw-d_xEtgWsrSaJ-m54v4Axk2akuDqQNMz6o7nisWXXVauFujZXzuHtFOQofRLZk1GXrTOKS8fKdbFi0zOzHAAG6qTwS7HzO8nVMUsH5iN7vfTPYdXGsRBjfu2oryUh_d3PSmI69VHttAg6GW9Zfr3OnNLDmfNL53ykAYxJPGM5rT2coxBChYAZ7ue_tEXpXBl3XQruN3MtNmVJSK24qTkGphny2EobnL3d5XbopW4jkUYAWjja6UrFqE1sesoOQB7nKM9eWHvzGfn-liKjbe6rDs7ntSl2Nu3iP1nZLhcRsN1dID3a_K4pygrQ1ENwqZsgAgH_TLN_ZZJOVg6-p55sSvzWZ7aQodR1TqsVQOeidX0tek0gVPZJaTbhtTwhpMer4RpzaqJD9HJRnZnuMQLmwqcY3irU93gGASurppYAUoxM8xLliR1gdSrUO3wQEUU-otq9PmMClsXrikZVKR2pSyHqBubt2aJ5yAX1LiCCbd2Pq-fsOMzVUvVlp_YRHjwUacN8w-tE5v07gl6dPijxeWp5dSG9o9zHyLgxdm0eu3GzFOERSOJTTvxwTijK4XkW65ho-RvSFjo_Pn_Nrp-pmCYbn9zdstkttOltGHE0k_mVa9-R1dtokStR5dAH0SfENC_Y7Myab-F1O5qXo0Smyu2K1QiTQQbgLhimULEn6In2xQtwHlVdxzEhfT9tw7Dp-lh-FheBUuyYme0n_TsjeXxu8yqZ4_yey56SQDB1Fx65HWSY-nmAZW_rYiNJgKLB8ydUmDLyVXeFy3]--></g></svg>