<?xml version="1.0" encoding="us-ascii" standalone="no"?><svg xmlns="http://www.w3.org/2000/svg" xmlns:xlink="http://www.w3.org/1999/xlink" contentStyleType="text/css" height="1500px" preserveAspectRatio="none" style="width:2516px;height:1500px;background:#FFFFFF;" version="1.1" viewBox="0 0 2516 1500" width="2516px" zoomAndPan="magnify"><defs/><g><!--cluster org--><g id="cluster_org"><path d="M8.5,263 L36.5,263 A3.75,3.75 0 0 1 39,265.5 L46,285.2969 L2389.5,285.2969 A2.5,2.5 0 0 1 2392,287.7969 L2392,1490.5 A2.5,2.5 0 0 1 2389.5,1493 L8.5,1493 A2.5,2.5 0 0 1 6,1490.5 L6,265.5 A2.5,2.5 0 0 1 8.5,263 " fill="none" style="stroke:#000000;stroke-width:1.5;"/><line style="stroke:#000000;stroke-width:1.5;" x1="6" x2="46" y1="285.2969" y2="285.2969"/><text fill="#000000" font-family="sans-serif" font-size="14" font-weight="bold" lengthAdjust="spacing" textLength="27" x="10" y="277.9951">org</text></g><!--cluster engine--><g id="cluster_engine"><path d="M32.5,306 L86.5,306 A3.75,3.75 0 0 1 89,308.5 L96,328.2969 L2365.5,328.2969 A2.5,2.5 0 0 1 2368,330.7969 L2368,1466.5 A2.5,2.5 0 0 1 2365.5,1469 L32.5,1469 A2.5,2.5 0 0 1 30,1466.5 L30,308.5 A2.5,2.5 0 0 1 32.5,306 " fill="none" style="stroke:#000000;stroke-width:1.5;"/><line style="stroke:#000000;stroke-width:1.5;" x1="30" x2="96" y1="328.2969" y2="328.2969"/><text fill="#000000" font-family="sans-serif" font-size="14" font-weight="bold" lengthAdjust="spacing" textLength="53" x="34" y="320.9951">engine</text></g><!--cluster javafx--><g id="cluster_javafx"><path d="M1798.5,6 L1849.5,6 A3.75,3.75 0 0 1 1852,8.5 L1859,28.2969 L2458.5,28.2969 A2.5,2.5 0 0 1 2461,30.7969 L2461,236.5 A2.5,2.5 0 0 1 2458.5,239 L1798.5,239 A2.5,2.5 0 0 1 1796,236.5 L1796,8.5 A2.5,2.5 0 0 1 1798.5,6 " fill="none" style="stroke:#000000;stroke-width:1.5;"/><line style="stroke:#000000;stroke-width:1.5;" x1="1796" x2="1859" y1="28.2969" y2="28.2969"/><text fill="#000000" font-family="sans-serif" font-size="14" font-weight="bold" lengthAdjust="spacing" textLength="50" x="1800" y="20.9951">javafx</text></g><!--cluster scene--><g id="cluster_scene"><path d="M1822.5,49 L1869.5,49 A3.75,3.75 0 0 1 1872,51.5 L1879,71.2969 L2058.5,71.2969 A2.5,2.5 0 0 1 2061,73.7969 L2061,212.5 A2.5,2.5 0 0 1 2058.5,215 L1822.5,215 A2.5,2.5 0 0 1 1820,212.5 L1820,51.5 A2.5,2.5 0 0 1 1822.5,49 " fill="none" style="stroke:#000000;stroke-width:1.5;"/><line style="stroke:#000000;stroke-width:1.5;" x1="1820" x2="1879" y1="71.2969" y2="71.2969"/><text fill="#000000" font-family="sans-serif" font-size="14" font-weight="bold" lengthAdjust="spacing" textLength="46" x="1824" y="63.9951">scene</text></g><!--cluster shape--><g id="cluster_shape"><path d="M1933.5,92 L1982.5,92 A3.75,3.75 0 0 1 1985,94.5 L1992,114.2969 L2034.5,114.2969 A2.5,2.5 0 0 1 2037,116.7969 L2037,188.5 A2.5,2.5 0 0 1 2034.5,191 L1933.5,191 A2.5,2.5 0 0 1 1931,188.5 L1931,94.5 A2.5,2.5 0 0 1 1933.5,92 " fill="none" style="stroke:#000000;stroke-width:1.5;"/><line style="stroke:#000000;stroke-width:1.5;" x1="1931" x2="1992" y1="114.2969" y2="114.2969"/><text fill="#000000" font-family="sans-serif" font-size="14" font-weight="bold" lengthAdjust="spacing" textLength="48" x="1935" y="106.9951">shape</text></g><!--cluster animation--><g id="cluster_animation"><path d="M2087.5,92 L2171.5,92 A3.75,3.75 0 0 1 2174,94.5 L2181,114.2969 L2262.5,114.2969 A2.5,2.5 0 0 1 2265,116.7969 L2265,188.5 A2.5,2.5 0 0 1 2262.5,191 L2087.5,191 A2.5,2.5 0 0 1 2085,188.5 L2085,94.5 A2.5,2.5 0 0 1 2087.5,92 " fill="none" style="stroke:#000000;stroke-width:1.5;"/><line style="stroke:#000000;stroke-width:1.5;" x1="2085" x2="2181" y1="114.2969" y2="114.2969"/><text fill="#000000" font-family="sans-serif" font-size="14" font-weight="bold" lengthAdjust="spacing" textLength="83" x="2089" y="106.9951">animation</text></g><!--cluster fxml--><g id="cluster_fxml"><path d="M2291.5,92 L2328.5,92 A3.75,3.75 0 0 1 2331,94.5 L2338,114.2969 L2434.5,114.2969 A2.5,2.5 0 0 1 2437,116.7969 L2437,188.5 A2.5,2.5 0 0 1 2434.5,191 L2291.5,191 A2.5,2.5 0 0 1 2289,188.5 L2289,94.5 A2.5,2.5 0 0 1 2291.5,92 " fill="none" style="stroke:#000000;stroke-width:1.5;"/><line style="stroke:#000000;stroke-width:1.5;" x1="2289" x2="2338" y1="114.2969" y2="114.2969"/><text fill="#000000" font-family="sans-serif" font-size="14" font-weight="bold" lengthAdjust="spacing" textLength="36" x="2293" y="106.9951">fxml</text></g><!--class Command--><g id="elem_Command"><rect codeLine="1" fill="#F1F1F1" height="64.2969" id="Command" rx="2.5" ry="2.5" style="stroke:#181818;stroke-width:0.5;" width="249" x="202.5" y="488"/><ellipse cx="285.75" cy="504" fill="#B4A7E5" rx="11" ry="11" style="stroke:#181818;stroke-width:1.0;"/><path d="M286.7031,500.7813 L288.4219,500.7813 C288.8125,500.7813 289,500.75 289.125,500.6719 C289.3906,500.5156 289.5313,500.2344 289.5313,499.9375 C289.5313,499.6719 289.4219,499.4063 289.1875,499.2344 C289.0156,499.125 288.875,499.0938 288.4219,499.0938 L283.2813,499.0938 C282.8438,499.0938 282.7188,499.1094 282.5625,499.2031 C282.3125,499.3594 282.1563,499.6563 282.1563,499.9375 C282.1563,500.2188 282.2969,500.4688 282.5156,500.6406 C282.6719,500.75 282.8594,500.7813 283.2813,500.7813 L285,500.7813 L285,507.2969 L283.2813,507.2969 C282.8438,507.2969 282.7188,507.3125 282.5625,507.4219 C282.3125,507.5781 282.1563,507.8594 282.1563,508.1563 C282.1563,508.4063 282.2969,508.6719 282.5156,508.8281 C282.6719,508.9531 282.875,509 283.2813,509 L288.4219,509 C289.1719,509 289.5313,508.7188 289.5313,508.1563 C289.5313,507.875 289.4219,507.625 289.1875,507.4531 C289.0156,507.3281 288.875,507.2969 288.4219,507.2969 L286.7031,507.2969 L286.7031,500.7813 Z " fill="#000000"/><text fill="#000000" font-family="sans-serif" font-size="14" font-style="italic" lengthAdjust="spacing" textLength="74" x="306.25" y="508.8467">Command</text><line style="stroke:#181818;stroke-width:0.5;" x1="203.5" x2="450.5" y1="520" y2="520"/><line style="stroke:#181818;stroke-width:0.5;" x1="203.5" x2="450.5" y1="528" y2="528"/><polygon fill="#4177AF" points="213.5,537.6484,209.5,543.6484,217.5,543.6484" style="stroke:#1963A0;stroke-width:1.0;"/><text fill="#000000" font-family="sans-serif" font-size="14" lengthAdjust="spacing" textLength="223" x="222.5" y="544.9951">Module create(TangibleObject)</text></g><!--class TangibleInterface--><g id="elem_TangibleInterface"><rect codeLine="4" fill="#F1F1F1" height="64.2969" id="TangibleInterface" rx="2.5" ry="2.5" style="stroke:#181818;stroke-width:0.5;" width="283" x="1402.5" y="488"/><ellipse cx="1476.75" cy="504" fill="#B4A7E5" rx="11" ry="11" style="stroke:#181818;stroke-width:1.0;"/><path d="M1477.7031,500.7813 L1479.4219,500.7813 C1479.8125,500.7813 1480,500.75 1480.125,500.6719 C1480.3906,500.5156 1480.5313,500.2344 1480.5313,499.9375 C1480.5313,499.6719 1480.4219,499.4063 1480.1875,499.2344 C1480.0156,499.125 1479.875,499.0938 1479.4219,499.0938 L1474.2813,499.0938 C1473.8438,499.0938 1473.7188,499.1094 1473.5625,499.2031 C1473.3125,499.3594 1473.1563,499.6563 1473.1563,499.9375 C1473.1563,500.2188 1473.2969,500.4688 1473.5156,500.6406 C1473.6719,500.75 1473.8594,500.7813 1474.2813,500.7813 L1476,500.7813 L1476,507.2969 L1474.2813,507.2969 C1473.8438,507.2969 1473.7188,507.3125 1473.5625,507.4219 C1473.3125,507.5781 1473.1563,507.8594 1473.1563,508.1563 C1473.1563,508.4063 1473.2969,508.6719 1473.5156,508.8281 C1473.6719,508.9531 1473.875,509 1474.2813,509 L1479.4219,509 C1480.1719,509 1480.5313,508.7188 1480.5313,508.1563 C1480.5313,507.875 1480.4219,507.625 1480.1875,507.4531 C1480.0156,507.3281 1479.875,507.2969 1479.4219,507.2969 L1477.7031,507.2969 L1477.7031,500.7813 Z " fill="#000000"/><text fill="#000000" font-family="sans-serif" font-size="14" font-style="italic" lengthAdjust="spacing" textLength="126" x="1497.25" y="508.8467">TangibleInterface</text><line style="stroke:#181818;stroke-width:0.5;" x1="1403.5" x2="1684.5" y1="520" y2="520"/><line style="stroke:#181818;stroke-width:0.5;" x1="1403.5" x2="1684.5" y1="528" y2="528"/><ellipse cx="1413.5" cy="541.6484" fill="#84BE84" rx="3" ry="3" style="stroke:#038048;stroke-width:1.0;"/><text fill="#000000" font-family="sans-serif" font-size="14" lengthAdjust="spacing" textLength="257" x="1422.5" y="544.9951">void setPosition(TuioObject,double)</text></g><!--class ModuleInterface--><g id="elem_ModuleInterface"><rect codeLine="7" fill="#F1F1F1" height="80.5938" id="ModuleInterface" rx="2.5" ry="2.5" style="stroke:#181818;stroke-width:0.5;" width="314" x="487" y="479.5"/><ellipse cx="581.75" cy="495.5" fill="#B4A7E5" rx="11" ry="11" style="stroke:#181818;stroke-width:1.0;"/><path d="M582.7031,492.2813 L584.4219,492.2813 C584.8125,492.2813 585,492.25 585.125,492.1719 C585.3906,492.0156 585.5313,491.7344 585.5313,491.4375 C585.5313,491.1719 585.4219,490.9063 585.1875,490.7344 C585.0156,490.625 584.875,490.5938 584.4219,490.5938 L579.2813,490.5938 C578.8438,490.5938 578.7188,490.6094 578.5625,490.7031 C578.3125,490.8594 578.1563,491.1563 578.1563,491.4375 C578.1563,491.7188 578.2969,491.9688 578.5156,492.1406 C578.6719,492.25 578.8594,492.2813 579.2813,492.2813 L581,492.2813 L581,498.7969 L579.2813,498.7969 C578.8438,498.7969 578.7188,498.8125 578.5625,498.9219 C578.3125,499.0781 578.1563,499.3594 578.1563,499.6563 C578.1563,499.9063 578.2969,500.1719 578.5156,500.3281 C578.6719,500.4531 578.875,500.5 579.2813,500.5 L584.4219,500.5 C585.1719,500.5 585.5313,500.2188 585.5313,499.6563 C585.5313,499.375 585.4219,499.125 585.1875,498.9531 C585.0156,498.8281 584.875,498.7969 584.4219,498.7969 L582.7031,498.7969 L582.7031,492.2813 Z " fill="#000000"/><text fill="#000000" font-family="sans-serif" font-size="14" font-style="italic" lengthAdjust="spacing" textLength="116" x="602.25" y="500.3467">ModuleInterface</text><line style="stroke:#181818;stroke-width:0.5;" x1="488" x2="800" y1="511.5" y2="511.5"/><line style="stroke:#181818;stroke-width:0.5;" x1="488" x2="800" y1="519.5" y2="519.5"/><polygon fill="#4177AF" points="498,529.1484,494,535.1484,502,535.1484" style="stroke:#1963A0;stroke-width:1.0;"/><text fill="#000000" font-family="sans-serif" font-size="14" lengthAdjust="spacing" textLength="158" x="507" y="536.4951">void doAction(double)</text><polygon fill="#4177AF" points="498,545.4453,494,551.4453,502,551.4453" style="stroke:#1963A0;stroke-width:1.0;"/><text fill="#000000" font-family="sans-serif" font-size="14" lengthAdjust="spacing" textLength="288" x="507" y="552.792">void onTuioObjectRemoved(TuioObject)</text></g><!--class Fonts--><g id="elem_Fonts"><rect codeLine="11" fill="#F1F1F1" height="227.2656" id="Fonts" rx="2.5" ry="2.5" style="stroke:#181818;stroke-width:0.5;" width="213" x="1154.5" y="406.5"/><ellipse cx="1236.75" cy="422.5" fill="#EB937F" rx="11" ry="11" style="stroke:#181818;stroke-width:1.0;"/><path d="M1235.5469,423.375 L1237,423.375 L1237,423.4844 C1237,423.8906 1237.0313,424.0469 1237.1094,424.2031 C1237.2656,424.4531 1237.5469,424.6094 1237.8438,424.6094 C1238.0938,424.6094 1238.3594,424.4688 1238.5156,424.25 C1238.6406,424.0938 1238.6719,423.9375 1238.6719,423.4844 L1238.6719,421.5625 C1238.6719,421.4063 1238.6719,421.3594 1238.6563,421.2031 C1238.5938,420.7344 1238.2813,420.4219 1237.8281,420.4219 C1237.5781,420.4219 1237.3125,420.5625 1237.1406,420.7813 C1237.0313,420.9531 1237,421.1094 1237,421.5625 L1237,421.6875 L1235.5469,421.6875 L1235.5469,419.2813 L1239.5313,419.2813 L1239.5313,420.1406 C1239.5313,420.5469 1239.5625,420.7188 1239.6406,420.875 C1239.8125,421.125 1240.0938,421.2813 1240.375,421.2813 C1240.6406,421.2813 1240.9063,421.1406 1241.0781,420.9219 C1241.1875,420.75 1241.2188,420.6094 1241.2188,420.1406 L1241.2188,417.5938 L1233.5938,417.5938 C1233.1563,417.5938 1233.0313,417.6094 1232.875,417.7031 C1232.625,417.8594 1232.4688,418.1563 1232.4688,418.4375 C1232.4688,418.7188 1232.6094,418.9688 1232.8281,419.1406 C1232.9844,419.25 1233.1719,419.2813 1233.5938,419.2813 L1233.8438,419.2813 L1233.8438,425.7969 L1233.5938,425.7969 C1233.1875,425.7969 1233.0313,425.8125 1232.875,425.9219 C1232.625,426.0938 1232.4688,426.3594 1232.4688,426.6563 C1232.4688,426.9219 1232.6094,427.1719 1232.8281,427.3281 C1232.9688,427.4531 1233.2031,427.5 1233.5938,427.5 L1241.5938,427.5 L1241.5938,424.9219 C1241.5938,424.4844 1241.5625,424.3438 1241.4844,424.1875 C1241.3125,423.9375 1241.0313,423.7813 1240.75,423.7813 C1240.4844,423.7813 1240.2188,423.8906 1240.0469,424.1406 C1239.9375,424.2969 1239.9063,424.4375 1239.9063,424.9219 L1239.9063,425.7969 L1235.5469,425.7969 L1235.5469,423.375 Z " fill="#000000"/><text fill="#000000" font-family="sans-serif" font-size="14" lengthAdjust="spacing" textLength="40" x="1257.25" y="427.3467">Fonts</text><line style="stroke:#181818;stroke-width:0.5;" x1="1155.5" x2="1366.5" y1="438.5" y2="438.5"/><ellipse cx="1165.5" cy="452.1484" fill="none" rx="3" ry="3" style="stroke:#038048;stroke-width:1.0;"/><text fill="#000000" font-family="sans-serif" font-size="14" lengthAdjust="spacing" textLength="63" x="1174.5" y="455.4951">BOLD_24</text><ellipse cx="1165.5" cy="468.4453" fill="none" rx="3" ry="3" style="stroke:#038048;stroke-width:1.0;"/><text fill="#000000" font-family="sans-serif" font-size="14" lengthAdjust="spacing" textLength="91" x="1174.5" y="471.792">REGULAR_46</text><ellipse cx="1165.5" cy="484.7422" fill="none" rx="3" ry="3" style="stroke:#038048;stroke-width:1.0;"/><text fill="#000000" font-family="sans-serif" font-size="14" lengthAdjust="spacing" textLength="64" x="1174.5" y="488.0889">BOLD_18</text><ellipse cx="1165.5" cy="501.0391" fill="none" rx="3" ry="3" style="stroke:#038048;stroke-width:1.0;"/><text fill="#000000" font-family="sans-serif" font-size="14" lengthAdjust="spacing" textLength="65" x="1174.5" y="504.3857">BOLD_16</text><ellipse cx="1165.5" cy="517.3359" fill="none" rx="3" ry="3" style="stroke:#038048;stroke-width:1.0;"/><text fill="#000000" font-family="sans-serif" font-size="14" lengthAdjust="spacing" textLength="92" x="1174.5" y="520.6826">REGULAR_16</text><ellipse cx="1165.5" cy="533.6328" fill="none" rx="3" ry="3" style="stroke:#038048;stroke-width:1.0;"/><text fill="#000000" font-family="sans-serif" font-size="14" lengthAdjust="spacing" textLength="91" x="1174.5" y="536.9795">REGULAR_14</text><ellipse cx="1165.5" cy="549.9297" fill="none" rx="3" ry="3" style="stroke:#038048;stroke-width:1.0;"/><text fill="#000000" font-family="sans-serif" font-size="14" lengthAdjust="spacing" textLength="91" x="1174.5" y="553.2764">REGULAR_12</text><ellipse cx="1165.5" cy="566.2266" fill="none" rx="3" ry="3" style="stroke:#038048;stroke-width:1.0;"/><text fill="#000000" font-family="sans-serif" font-size="14" lengthAdjust="spacing" textLength="64" x="1174.5" y="569.5732">BOLD_12</text><rect fill="none" height="6" style="stroke:#C82930;stroke-width:1.0;" width="6" x="1162.5" y="579.5234"/><text fill="#000000" font-family="sans-serif" font-size="14" lengthAdjust="spacing" textLength="68" x="1174.5" y="585.8701">Font font</text><line style="stroke:#181818;stroke-width:0.5;" x1="1155.5" x2="1366.5" y1="593.1719" y2="593.1719"/><polygon fill="#4177AF" points="1165.5,602.8203,1161.5,608.8203,1169.5,608.8203" style="stroke:#1963A0;stroke-width:1.0;"/><text fill="#000000" font-family="sans-serif" font-size="14" lengthAdjust="spacing" textLength="187" x="1174.5" y="610.167">&#171;Create&#187; Fonts(String,int)</text><ellipse cx="1165.5" cy="623.1172" fill="#84BE84" rx="3" ry="3" style="stroke:#038048;stroke-width:1.0;"/><text fill="#000000" font-family="sans-serif" font-size="14" lengthAdjust="spacing" textLength="105" x="1174.5" y="626.4639">Font getFont()</text></g><!--class Resource--><g id="elem_Resource"><rect codeLine="24" fill="#F1F1F1" height="145.7813" id="Resource" rx="2.5" ry="2.5" style="stroke:#181818;stroke-width:0.5;" width="282" x="365" y="824"/><ellipse cx="468.75" cy="840" fill="#ADD1B2" rx="11" ry="11" style="stroke:#181818;stroke-width:1.0;"/><path d="M471.0938,835.6719 C470.1563,835.2344 469.5625,835.0938 468.6875,835.0938 C466.0625,835.0938 464.0625,837.1719 464.0625,839.8906 L464.0625,841.0156 C464.0625,843.5938 466.1719,845.4844 469.0625,845.4844 C470.2813,845.4844 471.4375,845.1875 472.1875,844.6406 C472.7656,844.2344 473.0938,843.7813 473.0938,843.3906 C473.0938,842.9375 472.7031,842.5469 472.2344,842.5469 C472.0156,842.5469 471.8125,842.625 471.625,842.8125 C471.1719,843.2969 471.1719,843.2969 470.9844,843.3906 C470.5625,843.6563 469.875,843.7813 469.1094,843.7813 C467.0625,843.7813 465.7656,842.6875 465.7656,840.9844 L465.7656,839.8906 C465.7656,838.1094 467.0156,836.7969 468.75,836.7969 C469.3281,836.7969 469.9375,836.9531 470.4063,837.2031 C470.8906,837.4844 471.0625,837.7031 471.1563,838.1094 C471.2188,838.5156 471.25,838.6406 471.3906,838.7656 C471.5313,838.9063 471.7656,839.0156 471.9844,839.0156 C472.25,839.0156 472.5156,838.875 472.6875,838.6563 C472.7969,838.5 472.8281,838.3125 472.8281,837.8906 L472.8281,836.4688 C472.8281,836.0313 472.8125,835.9063 472.7188,835.75 C472.5625,835.4844 472.2813,835.3438 471.9844,835.3438 C471.6875,835.3438 471.4844,835.4375 471.2656,835.75 L471.0938,835.6719 Z " fill="#000000"/><text fill="#000000" font-family="sans-serif" font-size="14" lengthAdjust="spacing" textLength="66" x="489.25" y="844.8467">Resource</text><line style="stroke:#181818;stroke-width:0.5;" x1="366" x2="646" y1="856" y2="856"/><ellipse cx="376" cy="869.6484" fill="none" rx="3" ry="3" style="stroke:#038048;stroke-width:1.0;"/><text fill="#000000" font-family="sans-serif" font-size="14" lengthAdjust="spacing" text-decoration="underline" textLength="83" x="385" y="872.9951">String slash</text><ellipse cx="376" cy="885.9453" fill="none" rx="3" ry="3" style="stroke:#038048;stroke-width:1.0;"/><text fill="#000000" font-family="sans-serif" font-size="14" lengthAdjust="spacing" text-decoration="underline" textLength="117" x="385" y="889.292">String resources</text><rect fill="none" height="6" style="stroke:#C82930;stroke-width:1.0;" width="6" x="373" y="899.2422"/><text fill="#000000" font-family="sans-serif" font-size="14" lengthAdjust="spacing" textLength="123" x="385" y="905.5889">String config_file</text><rect fill="none" height="6" style="stroke:#C82930;stroke-width:1.0;" width="6" x="373" y="915.5391"/><text fill="#000000" font-family="sans-serif" font-size="14" lengthAdjust="spacing" textLength="224" x="385" y="921.8857">TangibleObject tangibleObject</text><line style="stroke:#181818;stroke-width:0.5;" x1="366" x2="646" y1="929.1875" y2="929.1875"/><ellipse cx="376" cy="942.8359" fill="#84BE84" rx="3" ry="3" style="stroke:#038048;stroke-width:1.0;"/><text fill="#000000" font-family="sans-serif" font-size="14" lengthAdjust="spacing" textLength="256" x="385" y="946.1826">&#171;Create&#187; Resource(TangibleObject)</text><ellipse cx="376" cy="959.1328" fill="#84BE84" rx="3" ry="3" style="stroke:#038048;stroke-width:1.0;"/><text fill="#000000" font-family="sans-serif" font-size="14" lengthAdjust="spacing" textLength="164" x="385" y="962.4795">Module readConfig(int)</text></g><!--class FingerTouchObject--><g id="elem_FingerTouchObject"><rect codeLine="32" fill="#F1F1F1" height="64.2969" id="FingerTouchObject" rx="2.5" ry="2.5" style="stroke:#181818;stroke-width:0.5;" width="242" x="1721" y="488"/><ellipse cx="1769.25" cy="504" fill="#ADD1B2" rx="11" ry="11" style="stroke:#181818;stroke-width:1.0;"/><path d="M1771.5938,499.6719 C1770.6563,499.2344 1770.0625,499.0938 1769.1875,499.0938 C1766.5625,499.0938 1764.5625,501.1719 1764.5625,503.8906 L1764.5625,505.0156 C1764.5625,507.5938 1766.6719,509.4844 1769.5625,509.4844 C1770.7813,509.4844 1771.9375,509.1875 1772.6875,508.6406 C1773.2656,508.2344 1773.5938,507.7813 1773.5938,507.3906 C1773.5938,506.9375 1773.2031,506.5469 1772.7344,506.5469 C1772.5156,506.5469 1772.3125,506.625 1772.125,506.8125 C1771.6719,507.2969 1771.6719,507.2969 1771.4844,507.3906 C1771.0625,507.6563 1770.375,507.7813 1769.6094,507.7813 C1767.5625,507.7813 1766.2656,506.6875 1766.2656,504.9844 L1766.2656,503.8906 C1766.2656,502.1094 1767.5156,500.7969 1769.25,500.7969 C1769.8281,500.7969 1770.4375,500.9531 1770.9063,501.2031 C1771.3906,501.4844 1771.5625,501.7031 1771.6563,502.1094 C1771.7188,502.5156 1771.75,502.6406 1771.8906,502.7656 C1772.0313,502.9063 1772.2656,503.0156 1772.4844,503.0156 C1772.75,503.0156 1773.0156,502.875 1773.1875,502.6563 C1773.2969,502.5 1773.3281,502.3125 1773.3281,501.8906 L1773.3281,500.4688 C1773.3281,500.0313 1773.3125,499.9063 1773.2188,499.75 C1773.0625,499.4844 1772.7813,499.3438 1772.4844,499.3438 C1772.1875,499.3438 1771.9844,499.4375 1771.7656,499.75 L1771.5938,499.6719 Z " fill="#000000"/><text fill="#000000" font-family="sans-serif" font-size="14" lengthAdjust="spacing" textLength="137" x="1789.75" y="508.8467">FingerTouchObject</text><line style="stroke:#181818;stroke-width:0.5;" x1="1722" x2="1962" y1="520" y2="520"/><line style="stroke:#181818;stroke-width:0.5;" x1="1722" x2="1962" y1="528" y2="528"/><ellipse cx="1732" cy="541.6484" fill="#84BE84" rx="3" ry="3" style="stroke:#038048;stroke-width:1.0;"/><text fill="#000000" font-family="sans-serif" font-size="14" lengthAdjust="spacing" textLength="216" x="1741" y="544.9951">&#171;Create&#187; FingerTouchObject()</text></g><!--class MusicFX--><g id="elem_MusicFX"><rect codeLine="35" fill="#F1F1F1" height="276.1563" id="MusicFX" rx="2.5" ry="2.5" style="stroke:#181818;stroke-width:0.5;" width="237" x="682.5" y="759"/><ellipse cx="768.25" cy="775" fill="#EB937F" rx="11" ry="11" style="stroke:#181818;stroke-width:1.0;"/><path d="M767.0469,775.875 L768.5,775.875 L768.5,775.9844 C768.5,776.3906 768.5313,776.5469 768.6094,776.7031 C768.7656,776.9531 769.0469,777.1094 769.3438,777.1094 C769.5938,777.1094 769.8594,776.9688 770.0156,776.75 C770.1406,776.5938 770.1719,776.4375 770.1719,775.9844 L770.1719,774.0625 C770.1719,773.9063 770.1719,773.8594 770.1563,773.7031 C770.0938,773.2344 769.7813,772.9219 769.3281,772.9219 C769.0781,772.9219 768.8125,773.0625 768.6406,773.2813 C768.5313,773.4531 768.5,773.6094 768.5,774.0625 L768.5,774.1875 L767.0469,774.1875 L767.0469,771.7813 L771.0313,771.7813 L771.0313,772.6406 C771.0313,773.0469 771.0625,773.2188 771.1406,773.375 C771.3125,773.625 771.5938,773.7813 771.875,773.7813 C772.1406,773.7813 772.4063,773.6406 772.5781,773.4219 C772.6875,773.25 772.7188,773.1094 772.7188,772.6406 L772.7188,770.0938 L765.0938,770.0938 C764.6563,770.0938 764.5313,770.1094 764.375,770.2031 C764.125,770.3594 763.9688,770.6563 763.9688,770.9375 C763.9688,771.2188 764.1094,771.4688 764.3281,771.6406 C764.4844,771.75 764.6719,771.7813 765.0938,771.7813 L765.3438,771.7813 L765.3438,778.2969 L765.0938,778.2969 C764.6875,778.2969 764.5313,778.3125 764.375,778.4219 C764.125,778.5938 763.9688,778.8594 763.9688,779.1563 C763.9688,779.4219 764.1094,779.6719 764.3281,779.8281 C764.4688,779.9531 764.7031,780 765.0938,780 L773.0938,780 L773.0938,777.4219 C773.0938,776.9844 773.0625,776.8438 772.9844,776.6875 C772.8125,776.4375 772.5313,776.2813 772.25,776.2813 C771.9844,776.2813 771.7188,776.3906 771.5469,776.6406 C771.4375,776.7969 771.4063,776.9375 771.4063,777.4219 L771.4063,778.2969 L767.0469,778.2969 L767.0469,775.875 Z " fill="#000000"/><text fill="#000000" font-family="sans-serif" font-size="14" lengthAdjust="spacing" textLength="57" x="788.75" y="779.8467">MusicFX</text><line style="stroke:#181818;stroke-width:0.5;" x1="683.5" x2="918.5" y1="791" y2="791"/><ellipse cx="693.5" cy="804.6484" fill="none" rx="3" ry="3" style="stroke:#038048;stroke-width:1.0;"/><text fill="#000000" font-family="sans-serif" font-size="14" lengthAdjust="spacing" textLength="107" x="702.5" y="807.9951">SOLAR_SAILOR</text><ellipse cx="693.5" cy="820.9453" fill="none" rx="3" ry="3" style="stroke:#038048;stroke-width:1.0;"/><text fill="#000000" font-family="sans-serif" font-size="14" lengthAdjust="spacing" textLength="206" x="702.5" y="824.292">CANT_GET_OUTTA_THE_RAIN</text><ellipse cx="693.5" cy="837.2422" fill="none" rx="3" ry="3" style="stroke:#038048;stroke-width:1.0;"/><text fill="#000000" font-family="sans-serif" font-size="14" lengthAdjust="spacing" textLength="186" x="702.5" y="840.5889">GOETHE_EINS_UND_ALLES</text><rect fill="none" height="6" style="stroke:#C82930;stroke-width:1.0;" width="6" x="690.5" y="850.5391"/><text fill="#000000" font-family="sans-serif" font-size="14" lengthAdjust="spacing" textLength="178" x="702.5" y="856.8857">MediaPlayer mediaPlayer</text><line style="stroke:#181818;stroke-width:0.5;" x1="683.5" x2="918.5" y1="864.1875" y2="864.1875"/><polygon fill="#4177AF" points="693.5,873.8359,689.5,879.8359,697.5,879.8359" style="stroke:#1963A0;stroke-width:1.0;"/><text fill="#000000" font-family="sans-serif" font-size="14" lengthAdjust="spacing" textLength="180" x="702.5" y="881.1826">&#171;Create&#187; MusicFX(String)</text><ellipse cx="693.5" cy="894.1328" fill="#84BE84" rx="3" ry="3" style="stroke:#038048;stroke-width:1.0;"/><text fill="#000000" font-family="sans-serif" font-size="14" lengthAdjust="spacing" textLength="211" x="702.5" y="897.4795">MediaPlayer getMediaPlayer()</text><ellipse cx="693.5" cy="910.4297" fill="#84BE84" rx="3" ry="3" style="stroke:#038048;stroke-width:1.0;"/><text fill="#000000" font-family="sans-serif" font-size="14" lengthAdjust="spacing" textLength="169" x="702.5" y="913.7764">void setCycleCount(int)</text><ellipse cx="693.5" cy="926.7266" fill="#84BE84" rx="3" ry="3" style="stroke:#038048;stroke-width:1.0;"/><text fill="#000000" font-family="sans-serif" font-size="14" lengthAdjust="spacing" textLength="74" x="702.5" y="930.0732">void play()</text><ellipse cx="693.5" cy="943.0234" fill="#84BE84" rx="3" ry="3" style="stroke:#038048;stroke-width:1.0;"/><text fill="#000000" font-family="sans-serif" font-size="14" lengthAdjust="spacing" textLength="134" x="702.5" y="946.3701">boolean isPlaying()</text><ellipse cx="693.5" cy="959.3203" fill="#84BE84" rx="3" ry="3" style="stroke:#038048;stroke-width:1.0;"/><text fill="#000000" font-family="sans-serif" font-size="14" lengthAdjust="spacing" textLength="146" x="702.5" y="962.667">boolean isStopped()</text><ellipse cx="693.5" cy="975.6172" fill="#84BE84" rx="3" ry="3" style="stroke:#038048;stroke-width:1.0;"/><text fill="#000000" font-family="sans-serif" font-size="14" lengthAdjust="spacing" textLength="86" x="702.5" y="978.9639">void pause()</text><ellipse cx="693.5" cy="991.9141" fill="#84BE84" rx="3" ry="3" style="stroke:#038048;stroke-width:1.0;"/><text fill="#000000" font-family="sans-serif" font-size="14" lengthAdjust="spacing" textLength="77" x="702.5" y="995.2607">void stop()</text><ellipse cx="693.5" cy="1008.2109" fill="#84BE84" rx="3" ry="3" style="stroke:#038048;stroke-width:1.0;"/><text fill="#000000" font-family="sans-serif" font-size="14" lengthAdjust="spacing" textLength="113" x="702.5" y="1011.5576">void backward()</text><ellipse cx="693.5" cy="1024.5078" fill="#84BE84" rx="3" ry="3" style="stroke:#038048;stroke-width:1.0;"/><text fill="#000000" font-family="sans-serif" font-size="14" lengthAdjust="spacing" textLength="99" x="702.5" y="1027.8545">void forward()</text></g><!--class Transitions--><g id="elem_Transitions"><rect codeLine="51" fill="#F1F1F1" height="162.0781" id="Transitions" rx="2.5" ry="2.5" style="stroke:#181818;stroke-width:0.5;" width="498" x="955" y="816"/><ellipse cx="1160.25" cy="832" fill="#ADD1B2" rx="11" ry="11" style="stroke:#181818;stroke-width:1.0;"/><path d="M1162.5938,827.6719 C1161.6563,827.2344 1161.0625,827.0938 1160.1875,827.0938 C1157.5625,827.0938 1155.5625,829.1719 1155.5625,831.8906 L1155.5625,833.0156 C1155.5625,835.5938 1157.6719,837.4844 1160.5625,837.4844 C1161.7813,837.4844 1162.9375,837.1875 1163.6875,836.6406 C1164.2656,836.2344 1164.5938,835.7813 1164.5938,835.3906 C1164.5938,834.9375 1164.2031,834.5469 1163.7344,834.5469 C1163.5156,834.5469 1163.3125,834.625 1163.125,834.8125 C1162.6719,835.2969 1162.6719,835.2969 1162.4844,835.3906 C1162.0625,835.6563 1161.375,835.7813 1160.6094,835.7813 C1158.5625,835.7813 1157.2656,834.6875 1157.2656,832.9844 L1157.2656,831.8906 C1157.2656,830.1094 1158.5156,828.7969 1160.25,828.7969 C1160.8281,828.7969 1161.4375,828.9531 1161.9063,829.2031 C1162.3906,829.4844 1162.5625,829.7031 1162.6563,830.1094 C1162.7188,830.5156 1162.75,830.6406 1162.8906,830.7656 C1163.0313,830.9063 1163.2656,831.0156 1163.4844,831.0156 C1163.75,831.0156 1164.0156,830.875 1164.1875,830.6563 C1164.2969,830.5 1164.3281,830.3125 1164.3281,829.8906 L1164.3281,828.4688 C1164.3281,828.0313 1164.3125,827.9063 1164.2188,827.75 C1164.0625,827.4844 1163.7813,827.3438 1163.4844,827.3438 C1163.1875,827.3438 1162.9844,827.4375 1162.7656,827.75 L1162.5938,827.6719 Z " fill="#000000"/><text fill="#000000" font-family="sans-serif" font-size="14" lengthAdjust="spacing" textLength="79" x="1180.75" y="836.8467">Transitions</text><line style="stroke:#181818;stroke-width:0.5;" x1="956" x2="1452" y1="848" y2="848"/><line style="stroke:#181818;stroke-width:0.5;" x1="956" x2="1452" y1="856" y2="856"/><ellipse cx="966" cy="869.6484" fill="#84BE84" rx="3" ry="3" style="stroke:#038048;stroke-width:1.0;"/><text fill="#000000" font-family="sans-serif" font-size="14" lengthAdjust="spacing" text-decoration="underline" textLength="334" x="975" y="872.9951">FadeTransition createFadeTransition(int,Node)</text><ellipse cx="966" cy="885.9453" fill="#84BE84" rx="3" ry="3" style="stroke:#038048;stroke-width:1.0;"/><text fill="#000000" font-family="sans-serif" font-size="14" lengthAdjust="spacing" text-decoration="underline" textLength="464" x="975" y="889.292">FadeTransition createFadeTransition(int,Node,double,double,int)</text><ellipse cx="966" cy="902.2422" fill="#84BE84" rx="3" ry="3" style="stroke:#038048;stroke-width:1.0;"/><text fill="#000000" font-family="sans-serif" font-size="14" lengthAdjust="spacing" text-decoration="underline" textLength="448" x="975" y="905.5889">ScaleTransition createScaleTransition(int,Node,double,double)</text><ellipse cx="966" cy="918.5391" fill="#84BE84" rx="3" ry="3" style="stroke:#038048;stroke-width:1.0;"/><text fill="#000000" font-family="sans-serif" font-size="14" lengthAdjust="spacing" text-decoration="underline" textLength="472" x="975" y="921.8857">ScaleTransition createScaleTransition(int,Node,double,double,int)</text><ellipse cx="966" cy="934.8359" fill="#84BE84" rx="3" ry="3" style="stroke:#038048;stroke-width:1.0;"/><text fill="#000000" font-family="sans-serif" font-size="14" lengthAdjust="spacing" text-decoration="underline" textLength="440" x="975" y="938.1826">FadeTransition createFadeTransition(int,Node,double,double)</text><ellipse cx="966" cy="951.1328" fill="#84BE84" rx="3" ry="3" style="stroke:#038048;stroke-width:1.0;"/><text fill="#000000" font-family="sans-serif" font-size="14" lengthAdjust="spacing" text-decoration="underline" textLength="422" x="975" y="954.4795">FillTransition createFillTransition(int,Shape,Color,Color,int)</text><ellipse cx="966" cy="967.4297" fill="#84BE84" rx="3" ry="3" style="stroke:#038048;stroke-width:1.0;"/><text fill="#000000" font-family="sans-serif" font-size="14" lengthAdjust="spacing" text-decoration="underline" textLength="400" x="975" y="970.7764">TranslateTransition createTranslateTransition(int,Node)</text></g><!--class MarkerListener--><g id="elem_MarkerListener"><rect codeLine="60" fill="#F1F1F1" height="227.2656" id="MarkerListener" rx="2.5" ry="2.5" style="stroke:#181818;stroke-width:0.5;" width="283" x="46.5" y="783.5"/><ellipse cx="129.25" cy="799.5" fill="#ADD1B2" rx="11" ry="11" style="stroke:#181818;stroke-width:1.0;"/><path d="M131.5938,795.1719 C130.6563,794.7344 130.0625,794.5938 129.1875,794.5938 C126.5625,794.5938 124.5625,796.6719 124.5625,799.3906 L124.5625,800.5156 C124.5625,803.0938 126.6719,804.9844 129.5625,804.9844 C130.7813,804.9844 131.9375,804.6875 132.6875,804.1406 C133.2656,803.7344 133.5938,803.2813 133.5938,802.8906 C133.5938,802.4375 133.2031,802.0469 132.7344,802.0469 C132.5156,802.0469 132.3125,802.125 132.125,802.3125 C131.6719,802.7969 131.6719,802.7969 131.4844,802.8906 C131.0625,803.1563 130.375,803.2813 129.6094,803.2813 C127.5625,803.2813 126.2656,802.1875 126.2656,800.4844 L126.2656,799.3906 C126.2656,797.6094 127.5156,796.2969 129.25,796.2969 C129.8281,796.2969 130.4375,796.4531 130.9063,796.7031 C131.3906,796.9844 131.5625,797.2031 131.6563,797.6094 C131.7188,798.0156 131.75,798.1406 131.8906,798.2656 C132.0313,798.4063 132.2656,798.5156 132.4844,798.5156 C132.75,798.5156 133.0156,798.375 133.1875,798.1563 C133.2969,798 133.3281,797.8125 133.3281,797.3906 L133.3281,795.9688 C133.3281,795.5313 133.3125,795.4063 133.2188,795.25 C133.0625,794.9844 132.7813,794.8438 132.4844,794.8438 C132.1875,794.8438 131.9844,794.9375 131.7656,795.25 L131.5938,795.1719 Z " fill="#000000"/><text fill="#000000" font-family="sans-serif" font-size="14" lengthAdjust="spacing" textLength="109" x="149.75" y="804.3467">MarkerListener</text><line style="stroke:#181818;stroke-width:0.5;" x1="47.5" x2="328.5" y1="815.5" y2="815.5"/><line style="stroke:#181818;stroke-width:0.5;" x1="47.5" x2="328.5" y1="823.5" y2="823.5"/><ellipse cx="57.5" cy="837.1484" fill="#84BE84" rx="3" ry="3" style="stroke:#038048;stroke-width:1.0;"/><text fill="#000000" font-family="sans-serif" font-size="14" lengthAdjust="spacing" textLength="188" x="66.5" y="840.4951">&#171;Create&#187; MarkerListener()</text><ellipse cx="57.5" cy="853.4453" fill="#84BE84" rx="3" ry="3" style="stroke:#038048;stroke-width:1.0;"/><text fill="#000000" font-family="sans-serif" font-size="14" lengthAdjust="spacing" textLength="228" x="66.5" y="856.792">void addTuioObject(TuioObject)</text><ellipse cx="57.5" cy="869.7422" fill="#84BE84" rx="3" ry="3" style="stroke:#038048;stroke-width:1.0;"/><text fill="#000000" font-family="sans-serif" font-size="14" lengthAdjust="spacing" textLength="253" x="66.5" y="873.0889">void updateTuioObject(TuioObject)</text><ellipse cx="57.5" cy="886.0391" fill="#84BE84" rx="3" ry="3" style="stroke:#038048;stroke-width:1.0;"/><text fill="#000000" font-family="sans-serif" font-size="14" lengthAdjust="spacing" textLength="257" x="66.5" y="889.3857">void removeTuioObject(TuioObject)</text><ellipse cx="57.5" cy="902.3359" fill="#84BE84" rx="3" ry="3" style="stroke:#038048;stroke-width:1.0;"/><text fill="#000000" font-family="sans-serif" font-size="14" lengthAdjust="spacing" textLength="222" x="66.5" y="905.6826">void addTuioCursor(TuioCursor)</text><ellipse cx="57.5" cy="918.6328" fill="#84BE84" rx="3" ry="3" style="stroke:#038048;stroke-width:1.0;"/><text fill="#000000" font-family="sans-serif" font-size="14" lengthAdjust="spacing" textLength="247" x="66.5" y="921.9795">void updateTuioCursor(TuioCursor)</text><ellipse cx="57.5" cy="934.9297" fill="#84BE84" rx="3" ry="3" style="stroke:#038048;stroke-width:1.0;"/><text fill="#000000" font-family="sans-serif" font-size="14" lengthAdjust="spacing" textLength="251" x="66.5" y="938.2764">void removeTuioCursor(TuioCursor)</text><ellipse cx="57.5" cy="951.2266" fill="#84BE84" rx="3" ry="3" style="stroke:#038048;stroke-width:1.0;"/><text fill="#000000" font-family="sans-serif" font-size="14" lengthAdjust="spacing" textLength="196" x="66.5" y="954.5732">void addTuioBlob(TuioBlob)</text><ellipse cx="57.5" cy="967.5234" fill="#84BE84" rx="3" ry="3" style="stroke:#038048;stroke-width:1.0;"/><text fill="#000000" font-family="sans-serif" font-size="14" lengthAdjust="spacing" textLength="221" x="66.5" y="970.8701">void updateTuioBlob(TuioBlob)</text><ellipse cx="57.5" cy="983.8203" fill="#84BE84" rx="3" ry="3" style="stroke:#038048;stroke-width:1.0;"/><text fill="#000000" font-family="sans-serif" font-size="14" lengthAdjust="spacing" textLength="225" x="66.5" y="987.167">void removeTuioBlob(TuioBlob)</text><ellipse cx="57.5" cy="1000.1172" fill="#84BE84" rx="3" ry="3" style="stroke:#038048;stroke-width:1.0;"/><text fill="#000000" font-family="sans-serif" font-size="14" lengthAdjust="spacing" textLength="162" x="66.5" y="1003.4639">void refresh(TuioTime)</text></g><!--class KeyPolling--><g id="elem_KeyPolling"><rect codeLine="73" fill="#F1F1F1" height="227.2656" id="KeyPolling" rx="2.5" ry="2.5" style="stroke:#181818;stroke-width:0.5;" width="281" x="365.5" y="1160.5"/><ellipse cx="464.25" cy="1176.5" fill="#ADD1B2" rx="11" ry="11" style="stroke:#181818;stroke-width:1.0;"/><path d="M466.5938,1172.1719 C465.6563,1171.7344 465.0625,1171.5938 464.1875,1171.5938 C461.5625,1171.5938 459.5625,1173.6719 459.5625,1176.3906 L459.5625,1177.5156 C459.5625,1180.0938 461.6719,1181.9844 464.5625,1181.9844 C465.7813,1181.9844 466.9375,1181.6875 467.6875,1181.1406 C468.2656,1180.7344 468.5938,1180.2813 468.5938,1179.8906 C468.5938,1179.4375 468.2031,1179.0469 467.7344,1179.0469 C467.5156,1179.0469 467.3125,1179.125 467.125,1179.3125 C466.6719,1179.7969 466.6719,1179.7969 466.4844,1179.8906 C466.0625,1180.1563 465.375,1180.2813 464.6094,1180.2813 C462.5625,1180.2813 461.2656,1179.1875 461.2656,1177.4844 L461.2656,1176.3906 C461.2656,1174.6094 462.5156,1173.2969 464.25,1173.2969 C464.8281,1173.2969 465.4375,1173.4531 465.9063,1173.7031 C466.3906,1173.9844 466.5625,1174.2031 466.6563,1174.6094 C466.7188,1175.0156 466.75,1175.1406 466.8906,1175.2656 C467.0313,1175.4063 467.2656,1175.5156 467.4844,1175.5156 C467.75,1175.5156 468.0156,1175.375 468.1875,1175.1563 C468.2969,1175 468.3281,1174.8125 468.3281,1174.3906 L468.3281,1172.9688 C468.3281,1172.5313 468.3125,1172.4063 468.2188,1172.25 C468.0625,1171.9844 467.7813,1171.8438 467.4844,1171.8438 C467.1875,1171.8438 466.9844,1171.9375 466.7656,1172.25 L466.5938,1172.1719 Z " fill="#000000"/><text fill="#000000" font-family="sans-serif" font-size="14" lengthAdjust="spacing" textLength="75" x="484.75" y="1181.3467">KeyPolling</text><line style="stroke:#181818;stroke-width:0.5;" x1="366.5" x2="645.5" y1="1192.5" y2="1192.5"/><rect fill="none" height="6" style="stroke:#C82930;stroke-width:1.0;" width="6" x="373.5" y="1203.1484"/><text fill="#000000" font-family="sans-serif" font-size="14" lengthAdjust="spacing" text-decoration="underline" textLength="90" x="385.5" y="1209.4951">Scene scene</text><rect fill="none" height="6" style="stroke:#C82930;stroke-width:1.0;" width="6" x="373.5" y="1219.4453"/><text fill="#000000" font-family="sans-serif" font-size="14" lengthAdjust="spacing" text-decoration="underline" textLength="255" x="385.5" y="1225.792">Set&lt;KeyCode&gt; keysCurrentlyDown</text><line style="stroke:#181818;stroke-width:0.5;" x1="366.5" x2="645.5" y1="1233.0938" y2="1233.0938"/><rect fill="#F24D5C" height="6" style="stroke:#C82930;stroke-width:1.0;" width="6" x="373.5" y="1243.7422"/><text fill="#000000" font-family="sans-serif" font-size="14" lengthAdjust="spacing" textLength="154" x="385.5" y="1250.0889">&#171;Create&#187; KeyPolling()</text><ellipse cx="376.5" cy="1263.0391" fill="#84BE84" rx="3" ry="3" style="stroke:#038048;stroke-width:1.0;"/><text fill="#000000" font-family="sans-serif" font-size="14" lengthAdjust="spacing" text-decoration="underline" textLength="175" x="385.5" y="1266.3857">KeyPolling getInstance()</text><ellipse cx="376.5" cy="1279.3359" fill="#84BE84" rx="3" ry="3" style="stroke:#038048;stroke-width:1.0;"/><text fill="#000000" font-family="sans-serif" font-size="14" lengthAdjust="spacing" textLength="159" x="385.5" y="1282.6826">void pollScene(Scene)</text><rect fill="#F24D5C" height="6" style="stroke:#C82930;stroke-width:1.0;" width="6" x="373.5" y="1292.6328"/><text fill="#000000" font-family="sans-serif" font-size="14" lengthAdjust="spacing" textLength="113" x="385.5" y="1298.9795">void clearKeys()</text><rect fill="#F24D5C" height="6" style="stroke:#C82930;stroke-width:1.0;" width="6" x="373.5" y="1308.9297"/><text fill="#000000" font-family="sans-serif" font-size="14" lengthAdjust="spacing" textLength="243" x="385.5" y="1315.2764">void removeCurrentKeyHandlers()</text><rect fill="#F24D5C" height="6" style="stroke:#C82930;stroke-width:1.0;" width="6" x="373.5" y="1325.2266"/><text fill="#000000" font-family="sans-serif" font-size="14" lengthAdjust="spacing" textLength="155" x="385.5" y="1331.5732">void setScene(Scene)</text><ellipse cx="376.5" cy="1344.5234" fill="#84BE84" rx="3" ry="3" style="stroke:#038048;stroke-width:1.0;"/><text fill="#000000" font-family="sans-serif" font-size="14" lengthAdjust="spacing" textLength="187" x="385.5" y="1347.8701">boolean isDown(KeyCode)</text><ellipse cx="376.5" cy="1360.8203" fill="#84BE84" rx="3" ry="3" style="stroke:#038048;stroke-width:1.0;"/><text fill="#000000" font-family="sans-serif" font-size="14" lengthAdjust="spacing" textLength="203" x="385.5" y="1364.167">boolean isPressed(KeyCode)</text><ellipse cx="376.5" cy="1377.1172" fill="#84BE84" rx="3" ry="3" style="stroke:#038048;stroke-width:1.0;"/><text fill="#000000" font-family="sans-serif" font-size="14" lengthAdjust="spacing" textLength="118" x="385.5" y="1380.4639">String toString()</text></g><!--class ReactImage--><g id="elem_ReactImage"><rect codeLine="86" fill="#F1F1F1" height="178.375" id="ReactImage" rx="2.5" ry="2.5" style="stroke:#181818;stroke-width:0.5;" width="283" x="836.5" y="431"/><ellipse cx="930.75" cy="447" fill="#ADD1B2" rx="11" ry="11" style="stroke:#181818;stroke-width:1.0;"/><path d="M933.0938,442.6719 C932.1563,442.2344 931.5625,442.0938 930.6875,442.0938 C928.0625,442.0938 926.0625,444.1719 926.0625,446.8906 L926.0625,448.0156 C926.0625,450.5938 928.1719,452.4844 931.0625,452.4844 C932.2813,452.4844 933.4375,452.1875 934.1875,451.6406 C934.7656,451.2344 935.0938,450.7813 935.0938,450.3906 C935.0938,449.9375 934.7031,449.5469 934.2344,449.5469 C934.0156,449.5469 933.8125,449.625 933.625,449.8125 C933.1719,450.2969 933.1719,450.2969 932.9844,450.3906 C932.5625,450.6563 931.875,450.7813 931.1094,450.7813 C929.0625,450.7813 927.7656,449.6875 927.7656,447.9844 L927.7656,446.8906 C927.7656,445.1094 929.0156,443.7969 930.75,443.7969 C931.3281,443.7969 931.9375,443.9531 932.4063,444.2031 C932.8906,444.4844 933.0625,444.7031 933.1563,445.1094 C933.2188,445.5156 933.25,445.6406 933.3906,445.7656 C933.5313,445.9063 933.7656,446.0156 933.9844,446.0156 C934.25,446.0156 934.5156,445.875 934.6875,445.6563 C934.7969,445.5 934.8281,445.3125 934.8281,444.8906 L934.8281,443.4688 C934.8281,443.0313 934.8125,442.9063 934.7188,442.75 C934.5625,442.4844 934.2813,442.3438 933.9844,442.3438 C933.6875,442.3438 933.4844,442.4375 933.2656,442.75 L933.0938,442.6719 Z " fill="#000000"/><text fill="#000000" font-family="sans-serif" font-size="14" lengthAdjust="spacing" textLength="86" x="951.25" y="451.8467">ReactImage</text><line style="stroke:#181818;stroke-width:0.5;" x1="837.5" x2="1118.5" y1="463" y2="463"/><rect fill="none" height="6" style="stroke:#C82930;stroke-width:1.0;" width="6" x="844.5" y="473.6484"/><text fill="#000000" font-family="sans-serif" font-size="14" lengthAdjust="spacing" textLength="92" x="856.5" y="479.9951">Image image</text><rect fill="none" height="6" style="stroke:#C82930;stroke-width:1.0;" width="6" x="844.5" y="489.9453"/><text fill="#000000" font-family="sans-serif" font-size="14" lengthAdjust="spacing" textLength="160" x="856.5" y="496.292">ImageView imageView</text><rect fill="none" height="6" style="stroke:#C82930;stroke-width:1.0;" width="6" x="844.5" y="506.2422"/><text fill="#000000" font-family="sans-serif" font-size="14" lengthAdjust="spacing" textLength="88" x="856.5" y="512.5889">String name</text><rect fill="none" height="6" style="stroke:#C82930;stroke-width:1.0;" width="6" x="844.5" y="522.5391"/><text fill="#000000" font-family="sans-serif" font-size="14" lengthAdjust="spacing" textLength="83" x="856.5" y="528.8857">String slash</text><rect fill="none" height="6" style="stroke:#C82930;stroke-width:1.0;" width="6" x="844.5" y="538.8359"/><text fill="#000000" font-family="sans-serif" font-size="14" lengthAdjust="spacing" textLength="117" x="856.5" y="545.1826">String resources</text><line style="stroke:#181818;stroke-width:0.5;" x1="837.5" x2="1118.5" y1="552.4844" y2="552.4844"/><ellipse cx="847.5" cy="566.1328" fill="#84BE84" rx="3" ry="3" style="stroke:#038048;stroke-width:1.0;"/><text fill="#000000" font-family="sans-serif" font-size="14" lengthAdjust="spacing" textLength="257" x="856.5" y="569.4795">&#171;Create&#187; ReactImage(String,String)</text><ellipse cx="847.5" cy="582.4297" fill="#84BE84" rx="3" ry="3" style="stroke:#038048;stroke-width:1.0;"/><text fill="#000000" font-family="sans-serif" font-size="14" lengthAdjust="spacing" textLength="195" x="856.5" y="585.7764">ImageView getImageView()</text><ellipse cx="847.5" cy="598.7266" fill="#84BE84" rx="3" ry="3" style="stroke:#038048;stroke-width:1.0;"/><text fill="#000000" font-family="sans-serif" font-size="14" lengthAdjust="spacing" textLength="124" x="856.5" y="602.0732">String getName()</text></g><!--class TangibleObject--><g id="elem_TangibleObject"><rect codeLine="96" fill="#F1F1F1" height="227.2656" id="TangibleObject" rx="2.5" ry="2.5" style="stroke:#181818;stroke-width:0.5;" width="295" x="1553.5" y="783.5"/><ellipse cx="1641.25" cy="799.5" fill="#ADD1B2" rx="11" ry="11" style="stroke:#181818;stroke-width:1.0;"/><path d="M1643.5938,795.1719 C1642.6563,794.7344 1642.0625,794.5938 1641.1875,794.5938 C1638.5625,794.5938 1636.5625,796.6719 1636.5625,799.3906 L1636.5625,800.5156 C1636.5625,803.0938 1638.6719,804.9844 1641.5625,804.9844 C1642.7813,804.9844 1643.9375,804.6875 1644.6875,804.1406 C1645.2656,803.7344 1645.5938,803.2813 1645.5938,802.8906 C1645.5938,802.4375 1645.2031,802.0469 1644.7344,802.0469 C1644.5156,802.0469 1644.3125,802.125 1644.125,802.3125 C1643.6719,802.7969 1643.6719,802.7969 1643.4844,802.8906 C1643.0625,803.1563 1642.375,803.2813 1641.6094,803.2813 C1639.5625,803.2813 1638.2656,802.1875 1638.2656,800.4844 L1638.2656,799.3906 C1638.2656,797.6094 1639.5156,796.2969 1641.25,796.2969 C1641.8281,796.2969 1642.4375,796.4531 1642.9063,796.7031 C1643.3906,796.9844 1643.5625,797.2031 1643.6563,797.6094 C1643.7188,798.0156 1643.75,798.1406 1643.8906,798.2656 C1644.0313,798.4063 1644.2656,798.5156 1644.4844,798.5156 C1644.75,798.5156 1645.0156,798.375 1645.1875,798.1563 C1645.2969,798 1645.3281,797.8125 1645.3281,797.3906 L1645.3281,795.9688 C1645.3281,795.5313 1645.3125,795.4063 1645.2188,795.25 C1645.0625,794.9844 1644.7813,794.8438 1644.4844,794.8438 C1644.1875,794.8438 1643.9844,794.9375 1643.7656,795.25 L1643.5938,795.1719 Z " fill="#000000"/><text fill="#000000" font-family="sans-serif" font-size="14" lengthAdjust="spacing" textLength="111" x="1661.75" y="804.3467">TangibleObject</text><line style="stroke:#181818;stroke-width:0.5;" x1="1554.5" x2="1847.5" y1="815.5" y2="815.5"/><rect fill="none" height="6" style="stroke:#C82930;stroke-width:1.0;" width="6" x="1561.5" y="826.1484"/><text fill="#000000" font-family="sans-serif" font-size="14" lengthAdjust="spacing" textLength="159" x="1573.5" y="832.4951">Rectangle objectPane</text><rect fill="none" height="6" style="stroke:#C82930;stroke-width:1.0;" width="6" x="1561.5" y="842.4453"/><text fill="#000000" font-family="sans-serif" font-size="14" lengthAdjust="spacing" textLength="146" x="1573.5" y="848.792">Circle intersectPane</text><rect fill="none" height="6" style="stroke:#C82930;stroke-width:1.0;" width="6" x="1561.5" y="858.7422"/><text fill="#000000" font-family="sans-serif" font-size="14" lengthAdjust="spacing" textLength="113" x="1573.5" y="865.0889">Circle dashPane</text><rect fill="none" height="6" style="stroke:#C82930;stroke-width:1.0;" width="6" x="1561.5" y="875.0391"/><text fill="#000000" font-family="sans-serif" font-size="14" lengthAdjust="spacing" textLength="108" x="1573.5" y="881.3857">Module module</text><rect fill="none" height="6" style="stroke:#C82930;stroke-width:1.0;" width="6" x="1561.5" y="891.3359"/><text fill="#000000" font-family="sans-serif" font-size="14" lengthAdjust="spacing" textLength="135" x="1573.5" y="897.6826">TuioObject marker</text><line style="stroke:#181818;stroke-width:0.5;" x1="1554.5" x2="1847.5" y1="904.9844" y2="904.9844"/><ellipse cx="1564.5" cy="918.6328" fill="#84BE84" rx="3" ry="3" style="stroke:#038048;stroke-width:1.0;"/><text fill="#000000" font-family="sans-serif" font-size="14" lengthAdjust="spacing" textLength="269" x="1573.5" y="921.9795">&#171;Create&#187; TangibleObject(TuioObject)</text><ellipse cx="1564.5" cy="934.9297" fill="#84BE84" rx="3" ry="3" style="stroke:#038048;stroke-width:1.0;"/><text fill="#000000" font-family="sans-serif" font-size="14" lengthAdjust="spacing" textLength="181" x="1573.5" y="938.2764">Circle getIntersectPane()</text><ellipse cx="1564.5" cy="951.2266" fill="#84BE84" rx="3" ry="3" style="stroke:#038048;stroke-width:1.0;"/><text fill="#000000" font-family="sans-serif" font-size="14" lengthAdjust="spacing" textLength="196" x="1573.5" y="954.5732">Rectangle getObjectPane()</text><ellipse cx="1564.5" cy="967.5234" fill="#84BE84" rx="3" ry="3" style="stroke:#038048;stroke-width:1.0;"/><text fill="#000000" font-family="sans-serif" font-size="14" lengthAdjust="spacing" textLength="168" x="1573.5" y="970.8701">TuioObject getMarker()</text><ellipse cx="1564.5" cy="983.8203" fill="#84BE84" rx="3" ry="3" style="stroke:#038048;stroke-width:1.0;"/><text fill="#000000" font-family="sans-serif" font-size="14" lengthAdjust="spacing" textLength="141" x="1573.5" y="987.167">Module getModule()</text><ellipse cx="1564.5" cy="1000.1172" fill="#84BE84" rx="3" ry="3" style="stroke:#038048;stroke-width:1.0;"/><text fill="#000000" font-family="sans-serif" font-size="14" lengthAdjust="spacing" textLength="257" x="1573.5" y="1003.4639">void setPosition(TuioObject,double)</text></g><!--class AppTimer--><g id="elem_AppTimer"><rect codeLine="109" fill="#F1F1F1" height="357.6406" id="AppTimer" rx="2.5" ry="2.5" style="stroke:#181818;stroke-width:0.5;" width="353" x="1998.5" y="341"/><ellipse cx="2135.75" cy="357" fill="#A9DCDF" rx="11" ry="11" style="stroke:#181818;stroke-width:1.0;"/><path d="M2137.8281,358.8125 L2138.2188,359.7969 L2137.8281,359.7969 C2137.375,359.7969 2137.2656,359.8125 2137.1094,359.9219 C2136.8594,360.0781 2136.7031,360.3594 2136.7031,360.6563 C2136.7031,360.9219 2136.8438,361.1719 2137.0625,361.3281 C2137.2031,361.4531 2137.4063,361.5 2137.8281,361.5 L2140.1875,361.5 C2140.5469,361.5 2140.7656,361.4688 2140.9063,361.375 C2141.1563,361.2344 2141.3125,360.9375 2141.3125,360.6563 C2141.3125,360.375 2141.1719,360.125 2140.9531,359.9688 C2140.7813,359.8281 2140.625,359.7969 2140.1563,359.7969 L2136.7656,351.5938 L2133.0938,351.5938 C2132.6406,351.5938 2132.5156,351.6094 2132.3594,351.7031 C2132.1094,351.875 2131.9531,352.1563 2131.9531,352.4375 C2131.9531,352.7188 2132.0938,352.9688 2132.3125,353.1406 C2132.4844,353.25 2132.6563,353.2813 2133.0938,353.2813 L2134.1719,353.2813 L2131.5313,359.7969 C2131.1094,359.7969 2130.9531,359.8125 2130.7969,359.9219 C2130.5469,360.0781 2130.3906,360.3594 2130.3906,360.6563 C2130.3906,361.2188 2130.7656,361.5 2131.5156,361.5 L2133.7813,361.5 C2134.1406,361.5 2134.3594,361.4688 2134.4844,361.375 C2134.75,361.2344 2134.8906,360.9375 2134.8906,360.6563 C2134.8906,360.375 2134.7656,360.125 2134.5469,359.9531 C2134.375,359.8281 2134.2344,359.7969 2133.7813,359.7969 L2133.3906,359.7969 L2133.7813,358.8125 L2137.8281,358.8125 Z M2137.125,357.1094 L2134.4531,357.1094 L2135.7969,353.8438 L2137.125,357.1094 Z " fill="#000000"/><text fill="#000000" font-family="sans-serif" font-size="14" font-style="italic" lengthAdjust="spacing" textLength="70" x="2156.25" y="361.8467">AppTimer</text><line style="stroke:#181818;stroke-width:0.5;" x1="1999.5" x2="2350.5" y1="373" y2="373"/><polygon fill="none" points="2009.5,382.6484,2005.5,388.6484,2013.5,388.6484" style="stroke:#1963A0;stroke-width:1.0;"/><text fill="#000000" font-family="sans-serif" font-size="14" lengthAdjust="spacing" textLength="114" x="2018.5" y="389.9951">long pauseStart</text><polygon fill="none" points="2009.5,398.9453,2005.5,404.9453,2013.5,404.9453" style="stroke:#1963A0;stroke-width:1.0;"/><text fill="#000000" font-family="sans-serif" font-size="14" lengthAdjust="spacing" textLength="144" x="2018.5" y="406.292">long animationStart</text><polygon fill="none" points="2009.5,415.2422,2005.5,421.2422,2013.5,421.2422" style="stroke:#1963A0;stroke-width:1.0;"/><text fill="#000000" font-family="sans-serif" font-size="14" lengthAdjust="spacing" textLength="253" x="2018.5" y="422.5889">DoubleProperty animationDuration</text><polygon fill="none" points="2009.5,431.5391,2005.5,437.5391,2013.5,437.5391" style="stroke:#1963A0;stroke-width:1.0;"/><text fill="#000000" font-family="sans-serif" font-size="14" lengthAdjust="spacing" textLength="185" x="2018.5" y="438.8857">long lastFrameTimeNanos</text><polygon fill="none" points="2009.5,447.8359,2005.5,453.8359,2013.5,453.8359" style="stroke:#1963A0;stroke-width:1.0;"/><text fill="#000000" font-family="sans-serif" font-size="14" lengthAdjust="spacing" textLength="123" x="2018.5" y="455.1826">boolean isPaused</text><polygon fill="none" points="2009.5,464.1328,2005.5,470.1328,2013.5,470.1328" style="stroke:#1963A0;stroke-width:1.0;"/><text fill="#000000" font-family="sans-serif" font-size="14" lengthAdjust="spacing" textLength="119" x="2018.5" y="471.4795">boolean isActive</text><polygon fill="none" points="2009.5,480.4297,2005.5,486.4297,2013.5,486.4297" style="stroke:#1963A0;stroke-width:1.0;"/><text fill="#000000" font-family="sans-serif" font-size="14" lengthAdjust="spacing" textLength="178" x="2018.5" y="487.7764">boolean pauseScheduled</text><polygon fill="none" points="2009.5,496.7266,2005.5,502.7266,2013.5,502.7266" style="stroke:#1963A0;stroke-width:1.0;"/><text fill="#000000" font-family="sans-serif" font-size="14" lengthAdjust="spacing" textLength="166" x="2018.5" y="504.0732">boolean playScheduled</text><polygon fill="none" points="2009.5,513.0234,2005.5,519.0234,2013.5,519.0234" style="stroke:#1963A0;stroke-width:1.0;"/><text fill="#000000" font-family="sans-serif" font-size="14" lengthAdjust="spacing" textLength="186" x="2018.5" y="520.3701">boolean restartScheduled</text><line style="stroke:#181818;stroke-width:0.5;" x1="1999.5" x2="2350.5" y1="527.6719" y2="527.6719"/><ellipse cx="2009.5" cy="541.3203" fill="#84BE84" rx="3" ry="3" style="stroke:#038048;stroke-width:1.0;"/><text fill="#000000" font-family="sans-serif" font-size="14" lengthAdjust="spacing" textLength="133" x="2018.5" y="544.667">boolean isPaused()</text><ellipse cx="2009.5" cy="557.6172" fill="#84BE84" rx="3" ry="3" style="stroke:#038048;stroke-width:1.0;"/><text fill="#000000" font-family="sans-serif" font-size="14" lengthAdjust="spacing" textLength="129" x="2018.5" y="560.9639">boolean isActive()</text><ellipse cx="2009.5" cy="573.9141" fill="#84BE84" rx="3" ry="3" style="stroke:#038048;stroke-width:1.0;"/><text fill="#000000" font-family="sans-serif" font-size="14" lengthAdjust="spacing" textLength="327" x="2018.5" y="577.2607">DoubleProperty animationDurationProperty()</text><ellipse cx="2009.5" cy="590.2109" fill="#84BE84" rx="3" ry="3" style="stroke:#038048;stroke-width:1.0;"/><text fill="#000000" font-family="sans-serif" font-size="14" lengthAdjust="spacing" textLength="86" x="2018.5" y="593.5576">void pause()</text><ellipse cx="2009.5" cy="606.5078" fill="#84BE84" rx="3" ry="3" style="stroke:#038048;stroke-width:1.0;"/><text fill="#000000" font-family="sans-serif" font-size="14" lengthAdjust="spacing" textLength="74" x="2018.5" y="609.8545">void play()</text><ellipse cx="2009.5" cy="622.8047" fill="#84BE84" rx="3" ry="3" style="stroke:#038048;stroke-width:1.0;"/><text fill="#000000" font-family="sans-serif" font-size="14" lengthAdjust="spacing" textLength="79" x="2018.5" y="626.1514">void start()</text><ellipse cx="2009.5" cy="639.1016" fill="#84BE84" rx="3" ry="3" style="stroke:#038048;stroke-width:1.0;"/><text fill="#000000" font-family="sans-serif" font-size="14" lengthAdjust="spacing" textLength="77" x="2018.5" y="642.4482">void stop()</text><ellipse cx="2009.5" cy="655.3984" fill="#84BE84" rx="3" ry="3" style="stroke:#038048;stroke-width:1.0;"/><text fill="#000000" font-family="sans-serif" font-size="14" lengthAdjust="spacing" textLength="123" x="2018.5" y="658.7451">void handle(long)</text><ellipse cx="2009.5" cy="671.6953" fill="#84BE84" rx="3" ry="3" style="stroke:#038048;stroke-width:1.0;"/><text fill="#000000" font-family="sans-serif" font-size="14" font-style="italic" lengthAdjust="spacing" textLength="101" x="2018.5" y="675.042">void tick(float)</text><ellipse cx="2009.5" cy="687.9922" fill="#84BE84" rx="3" ry="3" style="stroke:#038048;stroke-width:1.0;"/><text fill="#000000" font-family="sans-serif" font-size="14" lengthAdjust="spacing" textLength="224" x="2018.5" y="691.3389">double getAnimationDuration()</text></g><!--class ArduinoControl--><g id="elem_ArduinoControl"><rect codeLine="130" fill="#F1F1F1" height="178.375" id="ArduinoControl" rx="2.5" ry="2.5" style="stroke:#181818;stroke-width:0.5;" width="344" x="682" y="1185"/><ellipse cx="795.25" cy="1201" fill="#ADD1B2" rx="11" ry="11" style="stroke:#181818;stroke-width:1.0;"/><path d="M797.5938,1196.6719 C796.6563,1196.2344 796.0625,1196.0938 795.1875,1196.0938 C792.5625,1196.0938 790.5625,1198.1719 790.5625,1200.8906 L790.5625,1202.0156 C790.5625,1204.5938 792.6719,1206.4844 795.5625,1206.4844 C796.7813,1206.4844 797.9375,1206.1875 798.6875,1205.6406 C799.2656,1205.2344 799.5938,1204.7813 799.5938,1204.3906 C799.5938,1203.9375 799.2031,1203.5469 798.7344,1203.5469 C798.5156,1203.5469 798.3125,1203.625 798.125,1203.8125 C797.6719,1204.2969 797.6719,1204.2969 797.4844,1204.3906 C797.0625,1204.6563 796.375,1204.7813 795.6094,1204.7813 C793.5625,1204.7813 792.2656,1203.6875 792.2656,1201.9844 L792.2656,1200.8906 C792.2656,1199.1094 793.5156,1197.7969 795.25,1197.7969 C795.8281,1197.7969 796.4375,1197.9531 796.9063,1198.2031 C797.3906,1198.4844 797.5625,1198.7031 797.6563,1199.1094 C797.7188,1199.5156 797.75,1199.6406 797.8906,1199.7656 C798.0313,1199.9063 798.2656,1200.0156 798.4844,1200.0156 C798.75,1200.0156 799.0156,1199.875 799.1875,1199.6563 C799.2969,1199.5 799.3281,1199.3125 799.3281,1198.8906 L799.3281,1197.4688 C799.3281,1197.0313 799.3125,1196.9063 799.2188,1196.75 C799.0625,1196.4844 798.7813,1196.3438 798.4844,1196.3438 C798.1875,1196.3438 797.9844,1196.4375 797.7656,1196.75 L797.5938,1196.6719 Z " fill="#000000"/><text fill="#000000" font-family="sans-serif" font-size="14" lengthAdjust="spacing" textLength="109" x="815.75" y="1205.8467">ArduinoControl</text><line style="stroke:#181818;stroke-width:0.5;" x1="683" x2="1025" y1="1217" y2="1217"/><polygon fill="none" points="693,1226.6484,689,1232.6484,697,1232.6484" style="stroke:#1963A0;stroke-width:1.0;"/><text fill="#000000" font-family="sans-serif" font-size="14" lengthAdjust="spacing" textLength="92" x="702" y="1233.9951">SerialPort sp</text><polygon fill="none" points="693,1242.9453,689,1248.9453,697,1248.9453" style="stroke:#1963A0;stroke-width:1.0;"/><text fill="#000000" font-family="sans-serif" font-size="14" lengthAdjust="spacing" textLength="63" x="702" y="1250.292">Double x</text><polygon fill="none" points="693,1259.2422,689,1265.2422,697,1265.2422" style="stroke:#1963A0;stroke-width:1.0;"/><text fill="#000000" font-family="sans-serif" font-size="14" lengthAdjust="spacing" textLength="129" x="702" y="1266.5889">StringBuilder text</text><polygon fill="none" points="693,1275.5391,689,1281.5391,697,1281.5391" style="stroke:#1963A0;stroke-width:1.0;"/><text fill="#000000" font-family="sans-serif" font-size="14" lengthAdjust="spacing" textLength="277" x="702" y="1282.8857">ArrayList&lt;String&gt; measurementTypes</text><line style="stroke:#181818;stroke-width:0.5;" x1="683" x2="1025" y1="1290.1875" y2="1290.1875"/><ellipse cx="693" cy="1303.8359" fill="#84BE84" rx="3" ry="3" style="stroke:#038048;stroke-width:1.0;"/><text fill="#000000" font-family="sans-serif" font-size="14" lengthAdjust="spacing" textLength="318" x="702" y="1307.1826">&#171;Create&#187; ArduinoControl(ArrayList&lt;String&gt;)</text><ellipse cx="693" cy="1320.1328" fill="#84BE84" rx="3" ry="3" style="stroke:#038048;stroke-width:1.0;"/><text fill="#000000" font-family="sans-serif" font-size="14" lengthAdjust="spacing" textLength="124" x="702" y="1323.4795">Double getData()</text><rect fill="#F24D5C" height="6" style="stroke:#C82930;stroke-width:1.0;" width="6" x="690" y="1333.4297"/><text fill="#000000" font-family="sans-serif" font-size="14" lengthAdjust="spacing" textLength="162" x="702" y="1339.7764">void parseData(String)</text><ellipse cx="693" cy="1352.7266" fill="#84BE84" rx="3" ry="3" style="stroke:#038048;stroke-width:1.0;"/><text fill="#000000" font-family="sans-serif" font-size="14" lengthAdjust="spacing" textLength="112" x="702" y="1356.0732">void closePort()</text></g><!--class ButtonConfig--><g id="elem_ButtonConfig"><rect codeLine="140" fill="#F1F1F1" height="357.6406" id="ButtonConfig" rx="2.5" ry="2.5" style="stroke:#181818;stroke-width:0.5;" width="250" x="1061" y="1095"/><ellipse cx="1135.25" cy="1111" fill="#B4A7E5" rx="11" ry="11" style="stroke:#181818;stroke-width:1.0;"/><path d="M1136.2031,1107.7813 L1137.9219,1107.7813 C1138.3125,1107.7813 1138.5,1107.75 1138.625,1107.6719 C1138.8906,1107.5156 1139.0313,1107.2344 1139.0313,1106.9375 C1139.0313,1106.6719 1138.9219,1106.4063 1138.6875,1106.2344 C1138.5156,1106.125 1138.375,1106.0938 1137.9219,1106.0938 L1132.7813,1106.0938 C1132.3438,1106.0938 1132.2188,1106.1094 1132.0625,1106.2031 C1131.8125,1106.3594 1131.6563,1106.6563 1131.6563,1106.9375 C1131.6563,1107.2188 1131.7969,1107.4688 1132.0156,1107.6406 C1132.1719,1107.75 1132.3594,1107.7813 1132.7813,1107.7813 L1134.5,1107.7813 L1134.5,1114.2969 L1132.7813,1114.2969 C1132.3438,1114.2969 1132.2188,1114.3125 1132.0625,1114.4219 C1131.8125,1114.5781 1131.6563,1114.8594 1131.6563,1115.1563 C1131.6563,1115.4063 1131.7969,1115.6719 1132.0156,1115.8281 C1132.1719,1115.9531 1132.375,1116 1132.7813,1116 L1137.9219,1116 C1138.6719,1116 1139.0313,1115.7188 1139.0313,1115.1563 C1139.0313,1114.875 1138.9219,1114.625 1138.6875,1114.4531 C1138.5156,1114.3281 1138.375,1114.2969 1137.9219,1114.2969 L1136.2031,1114.2969 L1136.2031,1107.7813 Z " fill="#000000"/><text fill="#000000" font-family="sans-serif" font-size="14" font-style="italic" lengthAdjust="spacing" textLength="93" x="1155.75" y="1115.8467">ButtonConfig</text><line style="stroke:#181818;stroke-width:0.5;" x1="1062" x2="1310" y1="1127" y2="1127"/><polygon fill="none" points="1072,1136.6484,1068,1142.6484,1076,1142.6484" style="stroke:#1963A0;stroke-width:1.0;"/><text fill="#000000" font-family="sans-serif" font-size="14" lengthAdjust="spacing" textLength="187" x="1081" y="1143.9951">KeyCode toggleFullscreen</text><polygon fill="none" points="1072,1152.9453,1068,1158.9453,1076,1158.9453" style="stroke:#1963A0;stroke-width:1.0;"/><text fill="#000000" font-family="sans-serif" font-size="14" lengthAdjust="spacing" textLength="224" x="1081" y="1160.292">KeyCode toggleCalibrationGrid</text><polygon fill="none" points="1072,1169.2422,1068,1175.2422,1076,1175.2422" style="stroke:#1963A0;stroke-width:1.0;"/><text fill="#000000" font-family="sans-serif" font-size="14" lengthAdjust="spacing" textLength="133" x="1081" y="1176.5889">KeyCode toggleP1</text><polygon fill="none" points="1072,1185.5391,1068,1191.5391,1076,1191.5391" style="stroke:#1963A0;stroke-width:1.0;"/><text fill="#000000" font-family="sans-serif" font-size="14" lengthAdjust="spacing" textLength="132" x="1081" y="1192.8857">KeyCode toggleP2</text><polygon fill="none" points="1072,1201.8359,1068,1207.8359,1076,1207.8359" style="stroke:#1963A0;stroke-width:1.0;"/><text fill="#000000" font-family="sans-serif" font-size="14" lengthAdjust="spacing" textLength="142" x="1081" y="1209.1826">KeyCode saveGame</text><polygon fill="none" points="1072,1218.1328,1068,1224.1328,1076,1224.1328" style="stroke:#1963A0;stroke-width:1.0;"/><text fill="#000000" font-family="sans-serif" font-size="14" lengthAdjust="spacing" textLength="140" x="1081" y="1225.4795">KeyCode loadGame</text><polygon fill="none" points="1072,1234.4297,1068,1240.4297,1076,1240.4297" style="stroke:#1963A0;stroke-width:1.0;"/><text fill="#000000" font-family="sans-serif" font-size="14" lengthAdjust="spacing" textLength="168" x="1081" y="1241.7764">KeyCode actionPrimary</text><polygon fill="none" points="1072,1250.7266,1068,1256.7266,1076,1256.7266" style="stroke:#1963A0;stroke-width:1.0;"/><text fill="#000000" font-family="sans-serif" font-size="14" lengthAdjust="spacing" textLength="188" x="1081" y="1258.0732">KeyCode actionSecondary</text><polygon fill="none" points="1072,1267.0234,1068,1273.0234,1076,1273.0234" style="stroke:#1963A0;stroke-width:1.0;"/><text fill="#000000" font-family="sans-serif" font-size="14" lengthAdjust="spacing" textLength="170" x="1081" y="1274.3701">KeyCode actionTertiary</text><polygon fill="none" points="1072,1283.3203,1068,1289.3203,1076,1289.3203" style="stroke:#1963A0;stroke-width:1.0;"/><text fill="#000000" font-family="sans-serif" font-size="14" lengthAdjust="spacing" textLength="108" x="1081" y="1290.667">KeyCode north</text><polygon fill="none" points="1072,1299.6172,1068,1305.6172,1076,1305.6172" style="stroke:#1963A0;stroke-width:1.0;"/><text fill="#000000" font-family="sans-serif" font-size="14" lengthAdjust="spacing" textLength="108" x="1081" y="1306.9639">KeyCode south</text><polygon fill="none" points="1072,1315.9141,1068,1321.9141,1076,1321.9141" style="stroke:#1963A0;stroke-width:1.0;"/><text fill="#000000" font-family="sans-serif" font-size="14" lengthAdjust="spacing" textLength="102" x="1081" y="1323.2607">KeyCode west</text><polygon fill="none" points="1072,1332.2109,1068,1338.2109,1076,1338.2109" style="stroke:#1963A0;stroke-width:1.0;"/><text fill="#000000" font-family="sans-serif" font-size="14" lengthAdjust="spacing" textLength="99" x="1081" y="1339.5576">KeyCode east</text><polygon fill="none" points="1072,1348.5078,1068,1354.5078,1076,1354.5078" style="stroke:#1963A0;stroke-width:1.0;"/><text fill="#000000" font-family="sans-serif" font-size="14" lengthAdjust="spacing" textLength="116" x="1081" y="1355.8545">KeyCode north2</text><polygon fill="none" points="1072,1364.8047,1068,1370.8047,1076,1370.8047" style="stroke:#1963A0;stroke-width:1.0;"/><text fill="#000000" font-family="sans-serif" font-size="14" lengthAdjust="spacing" textLength="116" x="1081" y="1372.1514">KeyCode south2</text><polygon fill="none" points="1072,1381.1016,1068,1387.1016,1076,1387.1016" style="stroke:#1963A0;stroke-width:1.0;"/><text fill="#000000" font-family="sans-serif" font-size="14" lengthAdjust="spacing" textLength="107" x="1081" y="1388.4482">KeyCode east2</text><polygon fill="none" points="1072,1397.3984,1068,1403.3984,1076,1403.3984" style="stroke:#1963A0;stroke-width:1.0;"/><text fill="#000000" font-family="sans-serif" font-size="14" lengthAdjust="spacing" textLength="110" x="1081" y="1404.7451">KeyCode west2</text><polygon fill="none" points="1072,1413.6953,1068,1419.6953,1076,1419.6953" style="stroke:#1963A0;stroke-width:1.0;"/><text fill="#000000" font-family="sans-serif" font-size="14" lengthAdjust="spacing" textLength="108" x="1081" y="1421.042">KeyCode enter</text><polygon fill="none" points="1072,1429.9922,1068,1435.9922,1076,1435.9922" style="stroke:#1963A0;stroke-width:1.0;"/><text fill="#000000" font-family="sans-serif" font-size="14" lengthAdjust="spacing" textLength="96" x="1081" y="1437.3389">KeyCode exit</text><line style="stroke:#181818;stroke-width:0.5;" x1="1062" x2="1310" y1="1444.6406" y2="1444.6406"/></g><!--class Controller--><g id="elem_Controller"><rect codeLine="161" fill="#F1F1F1" height="210.9688" id="Controller" rx="2.5" ry="2.5" style="stroke:#181818;stroke-width:0.5;" width="403" x="1948.5" y="791.5"/><ellipse cx="2110.25" cy="807.5" fill="#A9DCDF" rx="11" ry="11" style="stroke:#181818;stroke-width:1.0;"/><path d="M2112.3281,809.3125 L2112.7188,810.2969 L2112.3281,810.2969 C2111.875,810.2969 2111.7656,810.3125 2111.6094,810.4219 C2111.3594,810.5781 2111.2031,810.8594 2111.2031,811.1563 C2111.2031,811.4219 2111.3438,811.6719 2111.5625,811.8281 C2111.7031,811.9531 2111.9063,812 2112.3281,812 L2114.6875,812 C2115.0469,812 2115.2656,811.9688 2115.4063,811.875 C2115.6563,811.7344 2115.8125,811.4375 2115.8125,811.1563 C2115.8125,810.875 2115.6719,810.625 2115.4531,810.4688 C2115.2813,810.3281 2115.125,810.2969 2114.6563,810.2969 L2111.2656,802.0938 L2107.5938,802.0938 C2107.1406,802.0938 2107.0156,802.1094 2106.8594,802.2031 C2106.6094,802.375 2106.4531,802.6563 2106.4531,802.9375 C2106.4531,803.2188 2106.5938,803.4688 2106.8125,803.6406 C2106.9844,803.75 2107.1563,803.7813 2107.5938,803.7813 L2108.6719,803.7813 L2106.0313,810.2969 C2105.6094,810.2969 2105.4531,810.3125 2105.2969,810.4219 C2105.0469,810.5781 2104.8906,810.8594 2104.8906,811.1563 C2104.8906,811.7188 2105.2656,812 2106.0156,812 L2108.2813,812 C2108.6406,812 2108.8594,811.9688 2108.9844,811.875 C2109.25,811.7344 2109.3906,811.4375 2109.3906,811.1563 C2109.3906,810.875 2109.2656,810.625 2109.0469,810.4531 C2108.875,810.3281 2108.7344,810.2969 2108.2813,810.2969 L2107.8906,810.2969 L2108.2813,809.3125 L2112.3281,809.3125 Z M2111.625,807.6094 L2108.9531,807.6094 L2110.2969,804.3438 L2111.625,807.6094 Z " fill="#000000"/><text fill="#000000" font-family="sans-serif" font-size="14" font-style="italic" lengthAdjust="spacing" textLength="71" x="2130.75" y="812.3467">Controller</text><line style="stroke:#181818;stroke-width:0.5;" x1="1949.5" x2="2350.5" y1="823.5" y2="823.5"/><ellipse cx="1959.5" cy="837.1484" fill="none" rx="3" ry="3" style="stroke:#038048;stroke-width:1.0;"/><text fill="#000000" font-family="sans-serif" font-size="14" lengthAdjust="spacing" text-decoration="underline" textLength="377" x="1968.5" y="840.4951">HashMap&lt;TuioCursor,FingerTouchObject&gt; cursorList</text><ellipse cx="1959.5" cy="853.4453" fill="none" rx="3" ry="3" style="stroke:#038048;stroke-width:1.0;"/><text fill="#000000" font-family="sans-serif" font-size="14" lengthAdjust="spacing" text-decoration="underline" textLength="357" x="1968.5" y="856.792">HashMap&lt;TuioObject,TangibleObject&gt; objectList</text><ellipse cx="1959.5" cy="869.7422" fill="none" rx="3" ry="3" style="stroke:#038048;stroke-width:1.0;"/><text fill="#000000" font-family="sans-serif" font-size="14" lengthAdjust="spacing" text-decoration="underline" textLength="257" x="1968.5" y="873.0889">ArrayList&lt;Line&gt; connectionLineList</text><ellipse cx="1959.5" cy="886.0391" fill="none" rx="3" ry="3" style="stroke:#038048;stroke-width:1.0;"/><text fill="#000000" font-family="sans-serif" font-size="14" lengthAdjust="spacing" text-decoration="underline" textLength="353" x="1968.5" y="889.3857">ArrayList&lt;PCBLaneModule&gt; PCB_LANE_MODULES</text><ellipse cx="1959.5" cy="902.3359" fill="none" rx="3" ry="3" style="stroke:#038048;stroke-width:1.0;"/><text fill="#000000" font-family="sans-serif" font-size="14" lengthAdjust="spacing" text-decoration="underline" textLength="265" x="1968.5" y="905.6826">PCBLaneModule CURRENT_PCB_LANE</text><polygon fill="none" points="1959.5,913.6328,1963.5,917.6328,1959.5,921.6328,1955.5,917.6328" style="stroke:#B38D22;stroke-width:1.0;"/><text fill="#000000" font-family="sans-serif" font-size="14" lengthAdjust="spacing" textLength="112" x="1968.5" y="921.9795">KeyPolling keys</text><polygon fill="none" points="1959.5,929.9297,1963.5,933.9297,1959.5,937.9297,1955.5,933.9297" style="stroke:#B38D22;stroke-width:1.0;"/><text fill="#000000" font-family="sans-serif" font-size="14" lengthAdjust="spacing" textLength="118" x="1968.5" y="938.2764">TuioClient client</text><polygon fill="none" points="1959.5,946.2266,1963.5,950.2266,1959.5,954.2266,1955.5,950.2266" style="stroke:#B38D22;stroke-width:1.0;"/><text fill="#000000" font-family="sans-serif" font-size="14" lengthAdjust="spacing" textLength="107" x="1968.5" y="954.5732">double xOffset</text><polygon fill="none" points="1959.5,962.5234,1963.5,966.5234,1959.5,970.5234,1955.5,966.5234" style="stroke:#B38D22;stroke-width:1.0;"/><text fill="#000000" font-family="sans-serif" font-size="14" lengthAdjust="spacing" textLength="107" x="1968.5" y="970.8701">double yOffset</text><line style="stroke:#181818;stroke-width:0.5;" x1="1949.5" x2="2350.5" y1="978.1719" y2="978.1719"/><polygon fill="#FFFF44" points="1959.5,986.8203,1963.5,990.8203,1959.5,994.8203,1955.5,990.8203" style="stroke:#B38D22;stroke-width:1.0;"/><text fill="#000000" font-family="sans-serif" font-size="14" lengthAdjust="spacing" textLength="204" x="1968.5" y="995.167">void enableDraggable(Node)</text></g><!--class TuioListener--><g id="elem_TuioListener"><rect fill="#F1F1F1" height="48" id="TuioListener" rx="2.5" ry="2.5" style="stroke:#181818;stroke-width:0.5;" width="121" x="46.5" y="496"/><ellipse cx="61.5" cy="512" fill="#ADD1B2" rx="11" ry="11" style="stroke:#181818;stroke-width:1.0;"/><path d="M63.8438,507.6719 C62.9063,507.2344 62.3125,507.0938 61.4375,507.0938 C58.8125,507.0938 56.8125,509.1719 56.8125,511.8906 L56.8125,513.0156 C56.8125,515.5938 58.9219,517.4844 61.8125,517.4844 C63.0313,517.4844 64.1875,517.1875 64.9375,516.6406 C65.5156,516.2344 65.8438,515.7813 65.8438,515.3906 C65.8438,514.9375 65.4531,514.5469 64.9844,514.5469 C64.7656,514.5469 64.5625,514.625 64.375,514.8125 C63.9219,515.2969 63.9219,515.2969 63.7344,515.3906 C63.3125,515.6563 62.625,515.7813 61.8594,515.7813 C59.8125,515.7813 58.5156,514.6875 58.5156,512.9844 L58.5156,511.8906 C58.5156,510.1094 59.7656,508.7969 61.5,508.7969 C62.0781,508.7969 62.6875,508.9531 63.1563,509.2031 C63.6406,509.4844 63.8125,509.7031 63.9063,510.1094 C63.9688,510.5156 64,510.6406 64.1406,510.7656 C64.2813,510.9063 64.5156,511.0156 64.7344,511.0156 C65,511.0156 65.2656,510.875 65.4375,510.6563 C65.5469,510.5 65.5781,510.3125 65.5781,509.8906 L65.5781,508.4688 C65.5781,508.0313 65.5625,507.9063 65.4688,507.75 C65.3125,507.4844 65.0313,507.3438 64.7344,507.3438 C64.4375,507.3438 64.2344,507.4375 64.0156,507.75 L63.8438,507.6719 Z " fill="#000000"/><text fill="#000000" font-family="sans-serif" font-size="14" lengthAdjust="spacing" textLength="89" x="75.5" y="516.8467">TuioListener</text><line style="stroke:#181818;stroke-width:0.5;" x1="47.5" x2="166.5" y1="528" y2="528"/><line style="stroke:#181818;stroke-width:0.5;" x1="47.5" x2="166.5" y1="536" y2="536"/></g><!--class Group--><g id="elem_Group"><rect fill="#F1F1F1" height="48" id="Group" rx="2.5" ry="2.5" style="stroke:#181818;stroke-width:0.5;" width="76" x="1836" y="127"/><ellipse cx="1851" cy="143" fill="#ADD1B2" rx="11" ry="11" style="stroke:#181818;stroke-width:1.0;"/><path d="M1853.3438,138.6719 C1852.4063,138.2344 1851.8125,138.0938 1850.9375,138.0938 C1848.3125,138.0938 1846.3125,140.1719 1846.3125,142.8906 L1846.3125,144.0156 C1846.3125,146.5938 1848.4219,148.4844 1851.3125,148.4844 C1852.5313,148.4844 1853.6875,148.1875 1854.4375,147.6406 C1855.0156,147.2344 1855.3438,146.7813 1855.3438,146.3906 C1855.3438,145.9375 1854.9531,145.5469 1854.4844,145.5469 C1854.2656,145.5469 1854.0625,145.625 1853.875,145.8125 C1853.4219,146.2969 1853.4219,146.2969 1853.2344,146.3906 C1852.8125,146.6563 1852.125,146.7813 1851.3594,146.7813 C1849.3125,146.7813 1848.0156,145.6875 1848.0156,143.9844 L1848.0156,142.8906 C1848.0156,141.1094 1849.2656,139.7969 1851,139.7969 C1851.5781,139.7969 1852.1875,139.9531 1852.6563,140.2031 C1853.1406,140.4844 1853.3125,140.7031 1853.4063,141.1094 C1853.4688,141.5156 1853.5,141.6406 1853.6406,141.7656 C1853.7813,141.9063 1854.0156,142.0156 1854.2344,142.0156 C1854.5,142.0156 1854.7656,141.875 1854.9375,141.6563 C1855.0469,141.5 1855.0781,141.3125 1855.0781,140.8906 L1855.0781,139.4688 C1855.0781,139.0313 1855.0625,138.9063 1854.9688,138.75 C1854.8125,138.4844 1854.5313,138.3438 1854.2344,138.3438 C1853.9375,138.3438 1853.7344,138.4375 1853.5156,138.75 L1853.3438,138.6719 Z " fill="#000000"/><text fill="#000000" font-family="sans-serif" font-size="14" lengthAdjust="spacing" textLength="44" x="1865" y="147.8467">Group</text><line style="stroke:#181818;stroke-width:0.5;" x1="1837" x2="1911" y1="159" y2="159"/><line style="stroke:#181818;stroke-width:0.5;" x1="1837" x2="1911" y1="167" y2="167"/></g><!--class Circle--><g id="elem_Circle"><rect fill="#F1F1F1" height="48" id="Circle" rx="2.5" ry="2.5" style="stroke:#181818;stroke-width:0.5;" width="73" x="1947.5" y="127"/><ellipse cx="1962.5" cy="143" fill="#ADD1B2" rx="11" ry="11" style="stroke:#181818;stroke-width:1.0;"/><path d="M1964.8438,138.6719 C1963.9063,138.2344 1963.3125,138.0938 1962.4375,138.0938 C1959.8125,138.0938 1957.8125,140.1719 1957.8125,142.8906 L1957.8125,144.0156 C1957.8125,146.5938 1959.9219,148.4844 1962.8125,148.4844 C1964.0313,148.4844 1965.1875,148.1875 1965.9375,147.6406 C1966.5156,147.2344 1966.8438,146.7813 1966.8438,146.3906 C1966.8438,145.9375 1966.4531,145.5469 1965.9844,145.5469 C1965.7656,145.5469 1965.5625,145.625 1965.375,145.8125 C1964.9219,146.2969 1964.9219,146.2969 1964.7344,146.3906 C1964.3125,146.6563 1963.625,146.7813 1962.8594,146.7813 C1960.8125,146.7813 1959.5156,145.6875 1959.5156,143.9844 L1959.5156,142.8906 C1959.5156,141.1094 1960.7656,139.7969 1962.5,139.7969 C1963.0781,139.7969 1963.6875,139.9531 1964.1563,140.2031 C1964.6406,140.4844 1964.8125,140.7031 1964.9063,141.1094 C1964.9688,141.5156 1965,141.6406 1965.1406,141.7656 C1965.2813,141.9063 1965.5156,142.0156 1965.7344,142.0156 C1966,142.0156 1966.2656,141.875 1966.4375,141.6563 C1966.5469,141.5 1966.5781,141.3125 1966.5781,140.8906 L1966.5781,139.4688 C1966.5781,139.0313 1966.5625,138.9063 1966.4688,138.75 C1966.3125,138.4844 1966.0313,138.3438 1965.7344,138.3438 C1965.4375,138.3438 1965.2344,138.4375 1965.0156,138.75 L1964.8438,138.6719 Z " fill="#000000"/><text fill="#000000" font-family="sans-serif" font-size="14" lengthAdjust="spacing" textLength="41" x="1976.5" y="147.8467">Circle</text><line style="stroke:#181818;stroke-width:0.5;" x1="1948.5" x2="2019.5" y1="159" y2="159"/><line style="stroke:#181818;stroke-width:0.5;" x1="1948.5" x2="2019.5" y1="167" y2="167"/></g><!--class AnimationTimer--><g id="elem_AnimationTimer"><rect fill="#F1F1F1" height="48" id="AnimationTimer" rx="2.5" ry="2.5" style="stroke:#181818;stroke-width:0.5;" width="148" x="2101" y="127"/><ellipse cx="2116" cy="143" fill="#ADD1B2" rx="11" ry="11" style="stroke:#181818;stroke-width:1.0;"/><path d="M2118.3438,138.6719 C2117.4063,138.2344 2116.8125,138.0938 2115.9375,138.0938 C2113.3125,138.0938 2111.3125,140.1719 2111.3125,142.8906 L2111.3125,144.0156 C2111.3125,146.5938 2113.4219,148.4844 2116.3125,148.4844 C2117.5313,148.4844 2118.6875,148.1875 2119.4375,147.6406 C2120.0156,147.2344 2120.3438,146.7813 2120.3438,146.3906 C2120.3438,145.9375 2119.9531,145.5469 2119.4844,145.5469 C2119.2656,145.5469 2119.0625,145.625 2118.875,145.8125 C2118.4219,146.2969 2118.4219,146.2969 2118.2344,146.3906 C2117.8125,146.6563 2117.125,146.7813 2116.3594,146.7813 C2114.3125,146.7813 2113.0156,145.6875 2113.0156,143.9844 L2113.0156,142.8906 C2113.0156,141.1094 2114.2656,139.7969 2116,139.7969 C2116.5781,139.7969 2117.1875,139.9531 2117.6563,140.2031 C2118.1406,140.4844 2118.3125,140.7031 2118.4063,141.1094 C2118.4688,141.5156 2118.5,141.6406 2118.6406,141.7656 C2118.7813,141.9063 2119.0156,142.0156 2119.2344,142.0156 C2119.5,142.0156 2119.7656,141.875 2119.9375,141.6563 C2120.0469,141.5 2120.0781,141.3125 2120.0781,140.8906 L2120.0781,139.4688 C2120.0781,139.0313 2120.0625,138.9063 2119.9688,138.75 C2119.8125,138.4844 2119.5313,138.3438 2119.2344,138.3438 C2118.9375,138.3438 2118.7344,138.4375 2118.5156,138.75 L2118.3438,138.6719 Z " fill="#000000"/><text fill="#000000" font-family="sans-serif" font-size="14" lengthAdjust="spacing" textLength="116" x="2130" y="147.8467">AnimationTimer</text><line style="stroke:#181818;stroke-width:0.5;" x1="2102" x2="2248" y1="159" y2="159"/><line style="stroke:#181818;stroke-width:0.5;" x1="2102" x2="2248" y1="167" y2="167"/></g><!--class Initializable--><g id="elem_Initializable"><rect fill="#F1F1F1" height="48" id="Initializable" rx="2.5" ry="2.5" style="stroke:#181818;stroke-width:0.5;" width="115" x="2305.5" y="127"/><ellipse cx="2320.5" cy="143" fill="#ADD1B2" rx="11" ry="11" style="stroke:#181818;stroke-width:1.0;"/><path d="M2322.8438,138.6719 C2321.9063,138.2344 2321.3125,138.0938 2320.4375,138.0938 C2317.8125,138.0938 2315.8125,140.1719 2315.8125,142.8906 L2315.8125,144.0156 C2315.8125,146.5938 2317.9219,148.4844 2320.8125,148.4844 C2322.0313,148.4844 2323.1875,148.1875 2323.9375,147.6406 C2324.5156,147.2344 2324.8438,146.7813 2324.8438,146.3906 C2324.8438,145.9375 2324.4531,145.5469 2323.9844,145.5469 C2323.7656,145.5469 2323.5625,145.625 2323.375,145.8125 C2322.9219,146.2969 2322.9219,146.2969 2322.7344,146.3906 C2322.3125,146.6563 2321.625,146.7813 2320.8594,146.7813 C2318.8125,146.7813 2317.5156,145.6875 2317.5156,143.9844 L2317.5156,142.8906 C2317.5156,141.1094 2318.7656,139.7969 2320.5,139.7969 C2321.0781,139.7969 2321.6875,139.9531 2322.1563,140.2031 C2322.6406,140.4844 2322.8125,140.7031 2322.9063,141.1094 C2322.9688,141.5156 2323,141.6406 2323.1406,141.7656 C2323.2813,141.9063 2323.5156,142.0156 2323.7344,142.0156 C2324,142.0156 2324.2656,141.875 2324.4375,141.6563 C2324.5469,141.5 2324.5781,141.3125 2324.5781,140.8906 L2324.5781,139.4688 C2324.5781,139.0313 2324.5625,138.9063 2324.4688,138.75 C2324.3125,138.4844 2324.0313,138.3438 2323.7344,138.3438 C2323.4375,138.3438 2323.2344,138.4375 2323.0156,138.75 L2322.8438,138.6719 Z " fill="#000000"/><text fill="#000000" font-family="sans-serif" font-size="14" lengthAdjust="spacing" textLength="83" x="2334.5" y="147.8467">Initializable</text><line style="stroke:#181818;stroke-width:0.5;" x1="2306.5" x2="2419.5" y1="159" y2="159"/><line style="stroke:#181818;stroke-width:0.5;" x1="2306.5" x2="2419.5" y1="167" y2="167"/></g><!--reverse link Circle to FingerTouchObject--><g id="link_Circle_FingerTouchObject"><path codeLine="175" d="M1968.5139,192.0269 C1943.9139,255.5969 1881.97,415.69 1854.07,487.8 " fill="none" id="Circle-backto-FingerTouchObject" style="stroke:#181818;stroke-width:1.0;"/><polygon fill="none" points="1975.01,175.24,1962.9182,189.8615,1974.1095,194.1923,1975.01,175.24" style="stroke:#181818;stroke-width:1.0;"/></g><!--reverse link TuioListener to MarkerListener--><g id="link_TuioListener_MarkerListener"><path codeLine="176" d="M115.8064,561.7692 C125.8954,608.4772 145.459,699.049 163.637,783.208 " fill="none" id="TuioListener-backto-MarkerListener" style="stroke:#181818;stroke-width:1.0;stroke-dasharray:7.0,7.0;"/><polygon fill="none" points="112.006,544.175,109.9416,563.036,121.6711,560.5024,112.006,544.175" style="stroke:#181818;stroke-width:1.0;"/></g><!--reverse link Group to ReactImage--><g id="link_Group_ReactImage"><path codeLine="177" d="M1817.5897,153.6715 C1683.1597,158.0915 1253.83,177.83 1137,255 C1074.5,296.29 1032.81,371.37 1007.86,430.94 " fill="none" id="Group-backto-ReactImage" style="stroke:#181818;stroke-width:1.0;"/><polygon fill="none" points="1835.58,153.08,1817.3926,147.6748,1817.7869,159.6683,1835.58,153.08" style="stroke:#181818;stroke-width:1.0;"/></g><!--reverse link TangibleInterface to TangibleObject--><g id="link_TangibleInterface_TangibleObject"><path codeLine="178" d="M1563.9309,568.6108 C1584.9409,618.7978 1620.47,703.648 1653.87,783.434 " fill="none" id="TangibleInterface-backto-TangibleObject" style="stroke:#181818;stroke-width:1.0;stroke-dasharray:7.0,7.0;"/><polygon fill="none" points="1556.98,552.007,1558.3963,570.9277,1569.4655,566.2938,1556.98,552.007" style="stroke:#181818;stroke-width:1.0;"/></g><!--reverse link Group to TangibleObject--><g id="link_Group_TangibleObject"><path codeLine="179" d="M1886.5521,192.1349 C1894.4621,214.9249 1904.19,231.5 1931,247 C1952.07,259.18 2351.95,237.63 2369,255 C2438.13,325.4 2433.86,624.648 2369,699 C2304.42,773.032 2023.73,726.545 1931,759 C1903.25,768.711 1875.18,781.987 1848.63,796.473 " fill="none" id="Group-backto-TangibleObject" style="stroke:#181818;stroke-width:1.0;"/><polygon fill="none" points="1880.65,175.13,1880.8838,194.1022,1892.2204,190.1675,1880.65,175.13" style="stroke:#181818;stroke-width:1.0;"/></g><!--reverse link AnimationTimer to AppTimer--><g id="link_AnimationTimer_AppTimer"><path codeLine="180" d="M2175,193.24 C2175,227.19 2175,275.46 2175,340.83 " fill="none" id="AnimationTimer-backto-AppTimer" style="stroke:#181818;stroke-width:1.0;"/><polygon fill="none" points="2175,175.24,2169,193.24,2181,193.24,2175,175.24" style="stroke:#181818;stroke-width:1.0;"/></g><!--reverse link Initializable to Controller--><g id="link_Initializable_Controller"><path codeLine="181" d="M2390.5131,189.8983 C2404.3131,209.8683 2412.33,225.32 2420,255 C2469.34,446.07 2509.41,523.084 2420,699 C2401.86,734.692 2373.88,765.456 2342.69,791.354 " fill="none" id="Initializable-backto-Controller" style="stroke:#181818;stroke-width:1.0;stroke-dasharray:7.0,7.0;"/><polygon fill="none" points="2380.28,175.09,2385.577,193.3093,2395.4491,186.4872,2380.28,175.09" style="stroke:#181818;stroke-width:1.0;"/></g><!--reverse link AppTimer to Controller--><g id="link_AppTimer_Controller"><path codeLine="182" d="M2161.9249,717.1253 C2159.8249,748.6843 2158.89,762.637 2156.98,791.315 " fill="none" id="AppTimer-backto-Controller" style="stroke:#181818;stroke-width:1.0;"/><polygon fill="none" points="2163.12,699.165,2155.9381,716.7269,2167.9116,717.5237,2163.12,699.165" style="stroke:#181818;stroke-width:1.0;"/></g><!--SRC=[hHXTR-8uy9rV4UbUKcsBj6YrkWU4H0FjegE0W9xk3Pd4WBV6ZcodBTVj_lOREmwsaz0xhUw5sFFjcV7C6C8K5ZkKueYBVHUpFM6uc_3Z4R4iUklyZ1vuLb0SfG8ZXUCr0eejnVFjTvoggyvxXxG9gCWcP-HRvrFqp4aMIQmMN195E8lN1U6bfEkC5q1_KM1fXI_kPoakuyFKoAe4M3XdJlWI7_appZnrMWzcnT5NSSUPaiREw7O-7MrwN_HoERv_d0wNcozVpuZFlxlbLv-cjWluF_SSKwzp4sbjqGv-mE1-Fp7U7GmCMCOh9GZRNuCdhe3BaEwnqjzOMvvI9ALl-X9BNWZhvJUfa2BfUrHAYIHG7rhWmZ99iCQ2KivsPB_P4Oe16COwKi4M17fcLmOqykDJbJz0cIL6V6oErNAAEp01YpKlqeDL-HPgQH34RN5yA2H9x_ug8xcQQ-UlXfFfVAdtoN2stjoFrvlvuteztAo_ZJVBuMIcKVVpiTwE9xFLvd4ssWodq_4AtF20Cu8M59smY8vk7SRDAhMHC-Vss21utZQ-ykv2SaefJdW1eRNXDfWSA0tTbdEA4Ok8rCmWkmPTAPxdaDkE4nKIUoe0xtPRb3wz8E6HxxYmW9Q8h0LYvLMLOMhTeGmxf2qE8L0Vvth6Ctprguos9bGVwnwNnYcYJLarw0LX_vkWXbM_Vi1G3A6qAIO06Z6h0yhnTS8f5_QtRf1XeC3T4DU2yOBMaWuFI3nXCILIOGPPNRkT8TPb6CeoLtY36cm9YZpJHdn88qm9_vZ6AaeA8Rc8tR95qMKQf-WoZLLqI_ashXOjIjhnJi4b_0ugyy4WrkJO7ea_y6d1ATKr-mrAb9VAuFj8wjy0Z5KVM188x21wmYS91nAOANeQyHS6b5uOdUWuo2DF9PIp2GCuIxr2amFIg8_DxnL8DN0eRqW0iupFeD85rWP0VODPWsBXKK1X36Jv5K-R7DlJr2eaE4v2BVIGjh4fNYukjK-KgiaHxR7nPhaY-hVQ_KdmImdHAzSm6JfYjoixxKspmTPwPQMjwlEkQJXbsiVL9lPE0l0PABrGhyEEhG-pX0L0eGDp0rmWane94H2OoCnQiW7Eu1mMOjltqNpqK72-Tz7HNFZmSA45jLjgfPlqyVIQupax0Jq_csfmdaxTIOtQs9ijDD2iWixwyPI9jb8924JKSE8mp_Mz4sR6f1nyRbhgIY6XAWXYa0nQU0KT6S4BmNCirCdXHuKmtueHbAax0G7KAcQ8SGaOBuErfYm0wV7s6NkWqfhqWFM9VLezCxJ18G-rbGxrgQ6nDbIKEWtmtmvMOIuE8ET9neuZOCcbwUHWwa2i7MLAJnMZTuE5AlGKxoX79fVAIEhG3-icjT-DeSWAmZZCe4fmQeAxme8Wkk12HJ8_1p5wrIXpssuBGZF818LVTP27Gg2JRd3z4Zs0UH390iePrB7rAQ_Vz51bt61t_jNd6265N0NC4TmF0tBLmTPJBh6sERxuMBejbEAidBRDGMr1X3AuXnjsLr0gOGJ0h85A42NRqeltWcGD_E9p4zJpG18zutjT4nq80fRLG2WjCmVY9auD-0h3CoHhmwmXqKY8OE28Wsy0BuBz2-I-juLmgJfthyxUgp7qQl82lFQ_ltybwiFgOfE1sldft5w_GSbzG7dVZHlNZUVE84eDHkVG9LvRwC8wFB35lyxeCd8AjWtq-uzXusgzlqozI6wdK9pBeZk8OBkP3cVZpSDyzAWVJHvJG1ebZylb65vW5KVdDt-kq9C9G8mBA07NWllq1s3skh_ETpiexGvmEWFCvS0C0NGaq7wl5t4rodOwtz4pshrspMZKbNfgxjfsrFznS_FXCxJZTrYmxJm0ztzqkvVdur3blU15tj3bPe7EX_-Ur3M5uVqlcjevpkMyUwwYPU-hirTDiMBSlHvfTyAWmKB5-5lxkc6Zo_HEMtUjQt3a_m00]--></g></svg>