<?xml version="1.0" encoding="utf-8"?>
<!-- Generator: $$$/GeneralStr/196=Adobe Illustrator 27.6.0, SVG Export Plug-In . SVG Version: 6.00 Build 0)  -->
<svg version="1.1" id="Layer_1" xmlns="http://www.w3.org/2000/svg" xmlns:xlink="http://www.w3.org/1999/xlink" x="0px" y="0px"
	 viewBox="0 0 283.5 283.5" style="enable-background:new 0 0 283.5 283.5;" xml:space="preserve">
<style type="text/css">
	.st0{fill:#FFFFFF;}
</style>
<circle cx="141.7" cy="141.7" r="141.7"/>
<path class="st0" d="M131.5,57.6c-14.2,2-27.2,6.5-39,14.6c-71.4,48.5-27.8,166,59.6,153.7c14.2-2,27.2-6.5,39-14.6
	C262.4,162.9,218.6,45.3,131.5,57.6z"/>
<path d="M116.8,79.9c-20.4,2.4-16,32.5,4.4,29.4C140,106.5,135.7,77.7,116.8,79.9z"/>
<path d="M159,81.1c-18.4,5.8-8.8,34.2,9.9,28.1C187.5,103.1,177.7,75.3,159,81.1z"/>
<path d="M112.2,131c-27.3,5.8-34.8,40.3-13.6,57.3c15,12,27.7,3.5,44.3,4.4c9.7,0.5,18.7,4.4,28.4,2c27.5-6.8,32.8-41.5,11.4-57.9
	c-14.3-10.9-31.4-3.5-47.8-4.2C127.2,132.3,120.1,129.3,112.2,131z"/>
<g id="bits">
	<path id="bit1" class="st0" d="M160.2,1.2l-3.7,28.1c-10.1-1.3-20-1.3-29.6,0l-3.7-28.1l0,0C135.2-0.4,147.6-0.4,160.2,1.2z"/>
	<path id="bit2" class="st0" d="M196,10.8L196,10.8L185.1,37c-8.9-3.7-18.5-6.3-28.6-7.6l3.7-28.1C172.8,2.9,184.8,6.1,196,10.8z"/>
	<path id="bit3" class="st0" d="M228,29.2L228,29.2l-17.3,22.5c-7.8-6-16.4-11-25.6-14.8L196,10.8l0-0.1
		C207.6,15.5,218.3,21.8,228,29.2z"/>
	<path id="bit4" class="st0" d="M254.2,55.4L254.2,55.4l-22.5,17.3c-6-7.8-13-14.9-20.9-20.9L228,29.3l0,0
		C237.9,36.8,246.7,45.6,254.2,55.4z"/>
	<path id="bit5" class="st0" d="M272.7,87.5L272.7,87.5l-26.2,10.9c-3.8-9.2-8.8-17.8-14.8-25.6l22.5-17.2l0,0
		C261.7,65.2,268,76,272.7,87.5z"/>
	<path id="bit6" class="st0" d="M282.3,123.2L282.3,123.2l-28.1,3.7c-1.3-9.9-3.9-19.5-7.6-28.6l26.2-10.8l0,0
		C277.4,98.8,280.7,110.8,282.3,123.2z"/>
	<path id="bit7" class="st0" d="M282.3,123.2c1.6,12,1.6,24.4,0,37l-28.1-3.7c1.3-10.1,1.3-20,0-29.6L282.3,123.2L282.3,123.2z"/>
	<path id="bit8" class="st0" d="M254.1,156.5l28.1,3.7c-1.7,12.6-4.9,24.6-9.5,35.7l-0.1,0l-26.1-10.8h0
		C250.2,176.2,252.8,166.6,254.1,156.5z"/>
	<path id="bit9" class="st0" d="M272.6,196L272.6,196c-4.7,11.6-11,22.4-18.4,32.1l0,0l-22.5-17.2c6-7.8,11-16.4,14.8-25.6h0
		L272.6,196z"/>
	<path id="bit10" class="st0" d="M254.2,228L254.2,228c-7.6,9.9-16.4,18.7-26.2,26.2l0,0l-17.2-22.5c7.8-6,14.9-13.1,20.9-20.9
		L254.2,228z"/>
	<path id="bit11" class="st0" d="M228,254.2L228,254.2c-9.8,7.6-20.5,13.8-32,18.6l0,0l-10.8-26.2c9.2-3.8,17.8-8.8,25.6-14.8
		L228,254.2z"/>
	<path id="bit12" class="st0" d="M196,272.7L196,272.7c-11.3,4.7-23.3,8-35.7,9.6l0-0.1l-3.7-28.1c9.9-1.3,19.6-3.9,28.6-7.6
		L196,272.7z"/>
	<path id="bit13" class="st0" d="M160.2,282.2L160.2,282.2c-12,1.6-24.4,1.7-37,0l3.7-28.1c10.1,1.3,20,1.3,29.6,0L160.2,282.2z"/>
	<path id="bit14" class="st0" d="M126.9,254.1l-3.7,28.1c-12.6-1.7-24.6-4.9-35.8-9.5l0,0l10.8-26.2v0
		C107.3,250.2,116.9,252.8,126.9,254.1z"/>
	<path id="bit15" class="st0" d="M98.3,246.5L98.3,246.5l-10.8,26.2l0,0c-11.6-4.8-22.3-11-32-18.5l0,0l17.2-22.5
		C80.5,237.7,89.1,242.7,98.3,246.5z"/>
	<path id="bit16" class="st0" d="M72.7,231.7l-17.2,22.5l0,0c-9.9-7.6-18.6-16.4-26.1-26.2l0,0l22.5-17.2
		C57.8,218.6,64.8,225.7,72.7,231.7z"/>
	<path id="bit17" class="st0" d="M51.8,210.8L29.3,228l0,0c-7.5-9.8-13.8-20.6-18.5-32.1l0,0L37,185.1
		C40.8,194.3,45.8,202.9,51.8,210.8z"/>
	<path id="bit18" class="st0" d="M37,185.1L10.8,196l0,0c-4.7-11.3-7.9-23.3-9.6-35.7l0.1,0l28.1-3.7
		C30.6,166.5,33.2,176.1,37,185.1z"/>
	<path id="bit19" class="st0" d="M1.2,123.2l28.1,3.7c-1.3,10.1-1.3,20,0,29.6l-28.1,3.7l-0.1,0C-0.4,148.2-0.4,135.8,1.2,123.2z"/>
	<path id="bit20" class="st0" d="M10.8,87.5L37,98.3c-3.7,8.9-6.3,18.5-7.6,28.6l-28.1-3.7C2.9,110.7,6.1,98.7,10.8,87.5L10.8,87.5z
		"/>
	<path id="bit21" class="st0" d="M29.3,55.5l22.5,17.2c-6,7.8-11,16.4-14.8,25.6L10.8,87.5l-0.1,0C15.5,75.9,21.8,65.2,29.3,55.5
		L29.3,55.5z"/>
	<path id="bit22" class="st0" d="M72.7,51.8L72.7,51.8c-7.8,6-14.9,13.1-20.9,20.9L29.3,55.5l0,0c7.6-9.9,16.4-18.6,26.2-26.2l0,0
		L72.7,51.8z"/>
	<path id="bit23" class="st0" d="M87.5,10.8L98.3,37c-9.2,3.8-17.8,8.8-25.6,14.8l0,0L55.5,29.3l0,0C65.2,21.8,76,15.5,87.5,10.8
		L87.5,10.8z"/>
	<path id="bit24" class="st0" d="M123.2,1.2l3.7,28.1c-9.9,1.3-19.6,3.9-28.6,7.6L87.5,10.8l0,0C98.8,6.1,110.8,2.8,123.2,1.2
		L123.2,1.2z"/>
</g>
<path class="st0" d="M114.5,150.4c-16.8,5-9,30.8,8.2,25.6C139.6,171,131.7,145.3,114.5,150.4z"/>
<path class="st0" d="M160,150.3c-16.9,5-9.1,30.7,8.2,25.6C185.1,170.9,177.2,145.1,160,150.3z"/>
</svg>
